<svg width="77" height="79" viewBox="0 0 77 79" fill="none" xmlns="http://www.w3.org/2000/svg">
<g clip-path="url(#clip0_11_7688)">
<path d="M38.2211 0.0733752C70.8978 -0.470559 89.1805 40.8145 67.2752 65.8182C52.2827 82.9306 25.4978 83.604 10.2394 66.4636C-3.1702 51.4018 -3.15733 28.2932 10.1321 13.1559C17.0235 5.30766 27.8078 0.246054 38.2232 0.0712179L38.2211 0.0733752Z" fill="#1D1E1A"/>
<path d="M55.2876 6.21205C58.5478 7.91508 62.3163 10.8139 64.8107 13.5357C76.8948 26.7154 78.4005 47.6439 67.4854 61.9955C64.3646 66.101 60.6712 69.5265 56.1413 72.0108C40.2437 80.7289 21.1545 76.5933 9.91339 62.4272C9.18843 61.5142 8.48277 60.5192 7.88007 59.5198C0.14361 46.692 0.866425 29.9833 9.16484 17.6282C9.73537 16.7799 10.3381 15.9424 10.9837 15.1503C21.7058 2.03541 40.3552 -1.58434 55.2855 6.21205H55.2876Z" fill="#895647"/>
<path d="M9.91562 62.4251C21.1568 76.5933 40.2459 80.7268 56.1435 72.0087C56.3666 72.4944 57.1752 72.4987 56.7312 73.1937C55.1955 73.7333 53.8271 74.7046 52.3428 75.3479C51.5299 75.7019 49.8763 75.9781 49.4001 76.5329C34.4527 81.0765 18.2398 76.112 8.95044 63.3943L9.91348 62.4251H9.91562Z" fill="#E2C099"/>
<path d="M55.5023 5.02706C55.7189 5.52566 55.6889 5.8926 55.2878 6.21206C40.3575 -1.58434 21.7059 2.03542 10.986 15.1503L10.4519 13.9653C21.4271 0.453258 40.1859 -2.98518 55.5023 5.02706Z" fill="#E2C099"/>
<path d="M66.3101 13.6415C66.9729 14.0819 69.6089 17.857 70.1622 18.7571C78.51 32.3447 78.1389 49.7398 68.6651 62.641L67.4876 61.9956C78.4027 47.6418 76.8949 26.7132 64.813 13.5358C65.9669 14.4963 65.0832 12.8278 66.3101 13.6437V13.6415Z" fill="#E2C099"/>
<path d="M68.6652 62.6409C63.9058 69.1228 57.1066 74.1909 49.4023 76.5329C49.8785 75.9803 51.5322 75.7018 52.3451 75.3479C53.8272 74.7046 55.1977 73.7333 56.7334 73.1937C57.1774 72.4987 56.3688 72.4944 56.1457 72.0087C60.6735 69.5243 64.3669 66.0988 67.4898 61.9934L68.6674 62.6388L68.6652 62.6409Z" fill="#EBD5B0"/>
<path d="M66.31 13.6415C65.081 12.8256 65.9668 14.4941 64.8129 13.5336C62.3185 10.8139 58.55 7.91293 55.2898 6.2099C55.6909 5.89045 55.7209 5.52351 55.5043 5.0249C59.6117 7.17258 63.3737 10.0045 66.3122 13.6394L66.31 13.6415Z" fill="#EBD5B0"/>
<path d="M7.88222 59.5177C8.48493 60.517 9.19058 61.5121 9.91554 62.4251L8.9525 63.3943C7.16799 60.9509 5.55936 58.3111 4.35181 55.5331C5.3127 56.1051 6.95351 61.62 7.88222 59.5177Z" fill="#BE916E"/>
<path d="M10.9858 15.1503C10.3402 15.9403 9.73539 16.78 9.16701 17.6282L8.41846 16.6591C9.0662 15.7245 9.73539 14.8503 10.4518 13.9675L10.9858 15.1525V15.1503Z" fill="#BE916E"/>
<path d="M9.16712 17.6261C0.868708 29.979 0.148039 46.6899 7.88236 59.5177C6.95149 61.62 5.31069 56.1051 4.35194 55.5331C-1.36837 42.3729 0.336786 28.3386 8.41857 16.6569L9.16712 17.6261Z" fill="#E2C099"/>
<path d="M35.4394 4.70331C44.821 4.0385 53.4433 6.59413 60.5877 12.7803C78.4457 28.2436 76.125 58.4945 55.2364 70.0726C31.5594 83.1961 2.09134 65.2009 4.78098 35.6666C6.20945 19.9896 19.6426 5.82572 35.4394 4.70547V4.70331Z" fill="#4E121B"/>
<path d="M63.421 18.919C60.5469 16.7217 50.8758 15.977 47.1545 16.4411C47.0537 15.2388 46.1185 12.9033 45.0139 12.2407C44.1946 9.47786 42.5752 7.92807 39.6625 7.61078C33.5626 6.94597 30.4268 12.3637 32.7068 16.8728C31.0231 16.5641 29.4338 15.7007 27.7308 15.4719C24.2389 15.0035 18.0789 15.8928 14.8359 17.5182C28.1511 2.24051 51.1289 2.80602 63.4189 18.919H63.421Z" fill="#F6E9CD"/>
<path d="M6.70703 36.6875C6.76709 35.8759 6.91079 35.1183 7.02876 34.3175C12.8177 33.0764 18.731 32.3037 24.6315 31.8396C25.9141 31.7382 28.0332 31.8806 28.3764 31.8396C28.4451 31.831 28.6274 31.6259 28.6445 31.6238C28.7453 31.6065 28.8676 31.6453 28.9663 31.6238C32.8012 31.8698 36.6405 31.7554 40.4691 31.6238L40.4154 31.4079C40.5956 31.3971 40.6814 31.4209 40.8444 31.3C40.8122 32.1699 41.046 31.8698 41.0589 31.9993C40.2953 33.0095 38.4894 32.4634 36.6169 32.5908C28.8976 33.1217 21.0175 34.6672 13.2896 35.3903L6.70918 36.6832L6.70703 36.6875Z" fill="#EBD5B0"/>
<path d="M70.3768 35.6104C70.4347 36.1414 70.4475 36.6918 70.484 37.225C70.2245 37.3459 70.5569 37.6545 70.2159 37.7624C70.0014 37.8315 66.5418 36.5235 65.9348 36.3616C60.1094 34.8183 54.136 34.3003 48.2248 33.1843C48.0682 32.9857 49.3315 32.5174 49.7755 32.3771C53.2544 31.2698 61.8038 32.2087 65.3986 33.3462C67.1359 33.8966 68.766 34.7686 70.3746 35.6083L70.3768 35.6104Z" fill="#EBD5B0"/>
<path d="M64.0644 59.5176C60.4031 64.3353 56.0684 67.7889 50.4746 70.0704V69.425C53.2865 67.9529 54.6571 64.2706 54.434 61.2401C55.6394 61.2811 56.8577 61.3329 57.7521 60.3789C58.9232 60.7091 55.4528 63.8303 56.4137 63.826C56.5917 63.826 59.2234 62.5395 59.6245 62.3193C61.1388 61.484 62.5458 60.1436 64.0665 59.5198L64.0644 59.5176Z" fill="#F6E9CD"/>
<path d="M50.4725 69.425V70.0704C46.1657 71.8274 42.2921 72.5807 37.6313 72.4404L39.7183 72.3325C36.2779 72.1167 40.1022 71.9979 43.8385 71.2554C45.4493 70.936 48.1754 70.3359 49.6167 69.7488C49.8312 69.6625 50.4318 69.4466 50.4725 69.425Z" fill="#E2C099"/>
<path d="M46.1937 19.6723C47.2211 20.6889 46.7406 30.6675 46.4082 31.1402C46.3674 31.1964 45.117 31.4359 45.0162 31.1402C45.4816 27.9565 45.754 24.7166 45.6038 21.5027C45.2006 22.1265 44.0553 25.2454 43.5705 25.3793C42.0949 25.7915 41.741 22.0833 41.4836 23.1712C41.3313 23.8209 40.8895 30.0006 40.8423 31.3021C40.6793 31.4208 40.5956 31.3992 40.4133 31.41C39.4825 31.4618 39.4481 31.3669 39.4503 30.4948C39.4503 30.0783 40.4712 23.033 40.6278 22.256C40.9667 20.5724 40.898 20.6177 42.5539 20.5335L43.4633 23.333C44.1239 22.1128 44.7838 20.8925 45.443 19.6723C45.8655 19.4025 46.1529 19.6809 46.1915 19.6723H46.1937Z" fill="#0B301B"/>
<path d="M32.709 16.8728C33.1444 17.7318 34.2254 18.973 35.064 19.4565L34.8495 19.9939C32.7991 19.2687 33.672 19.8212 33.4575 19.886C33.4211 19.8968 33.05 19.791 33.0286 19.7781C33.005 19.763 33.1208 19.5579 32.6532 19.3464C27.7029 17.1167 18.2248 18.8003 12.9099 19.8838C13.4976 19.0766 14.1797 18.2671 14.836 17.5138C18.079 15.8885 24.239 14.9992 27.7308 15.4676C29.4338 15.6964 31.0231 16.5598 32.7068 16.8685L32.709 16.8728Z" fill="#EBD5B0"/>
<path d="M63.421 18.919C63.8157 19.219 63.8864 19.4435 64.1695 19.7802C63.9014 19.8515 64.1824 20.0457 64.1695 20.05C63.8543 20.1472 58.5822 18.9298 57.6964 18.8111C54.2325 19.5644 50.5798 18.8305 47.0494 19.2428C46.91 18.524 47.1931 16.8879 47.1566 16.4432C50.8758 15.9792 60.5491 16.7217 63.4231 18.9212L63.421 18.919Z" fill="#EBD5B0"/>
<path d="M47.1566 16.441C47.1931 16.8857 46.9099 18.5218 47.0494 19.2406C46.9936 19.2471 47.5169 19.4197 46.1936 19.6723C46.155 19.6809 45.8654 19.4025 45.445 19.6723C45.0976 19.2881 43.2337 20.717 43.0364 20.7493C42.5602 20.8271 42.6975 20.527 42.5538 20.5335C40.8979 20.6198 40.9644 20.5724 40.6277 22.256C40.306 22.256 39.9864 22.256 39.6647 22.256C40.9494 22.1588 40.4561 21.7293 40.8422 20.6954C40.78 20.6069 39.7633 20.7407 39.5574 20.7493C39.433 20.5054 39.0405 20.84 39.1284 20.3177C40.321 20.2594 41.5264 19.8601 42.5538 19.2406C43.1221 19.9896 44.9238 17.7771 45.1211 17.3562C45.7024 16.1259 45.5265 14.9258 45.3356 13.6415C45.267 13.1861 45.1469 12.6853 45.0139 12.2407C46.1185 12.9033 47.0537 15.2388 47.1545 16.441H47.1566Z" fill="#E2C099"/>
<path d="M33.4597 19.8881C33.5369 20.063 33.6141 20.2464 33.6741 20.4256C34.0709 21.602 34.324 22.828 34.798 23.9784C34.9203 23.9892 35.8705 22.0768 36.0292 21.8243C36.2372 21.494 36.6276 21.1336 36.7777 20.7472C36.8571 20.7602 38.1976 20.8508 38.3821 20.8551C38.6502 21.2847 38.3992 21.7336 38.3821 22.1481C38.2856 24.4965 38.5344 31.2223 38.114 31.41C37.9274 31.4942 36.9858 31.4554 36.8828 31.1402C36.7906 29.9013 37.3654 22.72 37.2046 22.3099C36.8013 21.2847 35.538 25.5563 34.7959 25.7031C33.391 25.9815 33.4811 22.6941 32.9771 21.8264C31.6022 24.9908 30.8387 28.4076 29.7662 31.6259C29.5217 31.6583 29.1721 31.5784 28.9641 31.6259C28.8675 31.6475 28.7453 31.6086 28.6423 31.6259C28.756 28.2652 31.2076 22.7546 33.0307 19.7802C33.0521 19.7932 33.4211 19.8989 33.4597 19.8881Z" fill="#0B301B"/>
<path d="M38.3819 22.1502C38.8045 22.3035 39.2313 22.256 39.6667 22.2581C39.9884 22.2581 40.308 22.2581 40.6297 22.2581C40.4732 23.033 39.4544 30.0804 39.4522 30.497C39.4501 31.369 39.4844 31.464 40.4153 31.4122L40.4689 31.6281C36.6382 31.7597 32.8011 31.8741 28.9661 31.6281C29.1763 31.5806 29.5237 31.6604 29.7682 31.6281C30.8407 28.4098 31.6042 24.9908 32.9791 21.8286C33.4853 22.6963 33.393 25.9837 34.7979 25.7052C35.54 25.5584 36.8033 21.2868 37.2066 22.3121C37.3674 22.7222 36.7926 29.9056 36.8848 31.1424C36.9878 31.4554 37.9294 31.4942 38.116 31.4122C38.5364 31.2244 38.2876 24.5008 38.3841 22.1502H38.3819Z" fill="#F6E9CD"/>
<path d="M34.8495 19.9961C35.3857 20.186 36.1279 20.6436 36.7756 20.7494C36.6255 21.1357 36.233 21.4962 36.0271 21.8265L33.672 20.4256C33.612 20.2465 33.5347 20.0608 33.4575 19.8881C33.672 19.8234 32.7969 19.2708 34.8495 19.9961Z" fill="#DCC590"/>
<path d="M39.1305 20.3177C39.0404 20.8379 39.433 20.5055 39.5595 20.7494C39.1413 20.7645 38.442 20.8595 38.382 20.8573C38.1954 20.853 36.857 20.7623 36.7776 20.7494C36.1299 20.6436 35.3878 20.186 34.8516 19.9961L35.066 19.4586C36.2135 20.1234 37.8243 20.3846 39.1327 20.3198L39.1305 20.3177Z" fill="#EBD5B0"/>
<path d="M45.4428 19.6723C44.7822 20.8926 44.1223 22.1128 43.4631 23.3331L42.5537 20.5335C42.6953 20.5271 42.5601 20.8271 43.0363 20.7494C43.2336 20.717 45.0975 19.2881 45.445 19.6723H45.4428Z" fill="#F6E9CD"/>
<path d="M39.6646 22.256C39.2292 22.256 38.8024 22.3013 38.3799 22.1481C38.397 21.7337 38.648 21.2847 38.3799 20.8552C38.4399 20.8552 39.1392 20.7645 39.5574 20.7472C39.7633 20.7386 40.7778 20.6048 40.8422 20.6933C40.4561 21.7293 40.9494 22.1567 39.6646 22.2538V22.256Z" fill="#E2C099"/>
<path d="M64.1716 19.7802C67.4125 23.6309 69.8383 30.6416 70.3788 35.6104C68.7702 34.773 67.1401 33.8988 65.4028 33.3484C61.808 32.2109 53.2586 31.2719 49.7797 32.3792C49.3336 32.5217 48.0724 32.9901 48.229 33.1865C54.1402 34.3003 60.1136 34.8204 65.939 36.3638C66.546 36.5235 70.0056 37.8337 70.2201 37.7646C70.5611 37.6545 70.2287 37.348 70.4882 37.2271C70.9193 43.7392 69.8362 49.3124 66.8505 55.1036C59.6889 52.8199 48.4627 50.1758 41.1145 49.9341C32.2992 49.6448 20.5433 52.2933 12.0068 54.8877C11.6593 55.2676 16.8499 61.2077 19.443 60.3789C20.2559 61.3891 21.7358 61.456 22.7611 60.8106C22.2763 64.1303 22.8168 66.1895 25.1161 68.5638C24.7622 69.0495 25.2319 68.7343 25.3306 68.7797C25.6051 68.9027 25.8239 69.0603 26.0791 69.2113V69.643C26.0405 69.6258 25.5965 69.6344 25.3842 69.5351C12.7253 63.6857 5.67306 50.5471 6.71116 36.6897L13.2916 35.3968C21.0194 34.6715 28.8996 33.1282 36.6189 32.5972C38.4892 32.4677 40.2952 33.0138 41.0609 32.0058C41.0502 31.8741 40.8142 32.1763 40.8464 31.3065C40.8957 30.0049 41.3354 23.8252 41.4877 23.1755C41.7451 22.0855 42.099 25.7937 43.5746 25.3836C44.0594 25.2476 45.2047 22.1308 45.608 21.507C45.756 24.721 45.4857 27.9608 45.0203 31.1446C45.1211 31.4403 46.3715 31.2007 46.4123 31.1446C46.7469 30.6719 47.2252 20.6933 46.1978 19.6766C47.5212 19.4241 46.9978 19.2514 47.0536 19.2449C50.584 18.8327 54.2367 19.5687 57.7006 18.8132C58.5864 18.9319 63.8585 20.1493 64.1738 20.0522C64.1866 20.0479 63.9057 19.8536 64.1738 19.7824L64.1716 19.7802Z" fill="#F6E9CD"/>
<path d="M61.0145 20.2097C64.1053 19.8946 64.4463 24.4727 62.5116 23.5489C61.9046 23.2575 62.6253 21.7271 61.5486 21.5027C60.3604 21.2544 59.3866 23.0136 60.4783 23.9806C60.7765 24.2439 65.3514 25.5822 63.6355 29.5257C62.5953 31.9173 57.5956 32.2432 57.8573 30.7107C58.0546 29.5473 62.0912 30.6179 62.5653 28.3407C63.1101 25.7268 60.2188 25.4656 59.6225 25.0555C57.793 23.7993 58.9834 20.417 61.0145 20.2097Z" fill="#0B301B"/>
<path d="M12.2706 48.6411C12.2577 48.531 12.039 47.7691 12.0561 47.7259C12.3693 47.5899 12.6974 47.5727 13.0192 47.4561C13.1028 48.1706 12.9548 48.4102 12.2706 48.6411Z" fill="#E2C099"/>
<path d="M25.3262 68.7796C25.2276 68.7365 24.7579 69.0494 25.1118 68.5638C25.1225 68.5746 25.3091 68.6156 25.3262 68.7796Z" fill="#EBD5B0"/>
<path d="M52.24 34.965C52.6196 34.8593 58.0096 35.9234 58.1791 36.4198C57.4863 39.4007 57.5356 42.7463 53.898 43.4198C53.8872 43.6766 56.3173 43.7997 56.5726 44.7127L54.8074 51.0133C53.4604 50.8168 47.3948 49.8434 46.8886 49.6124C46.7878 49.5649 46.4296 49.321 46.406 49.2347C46.8543 45.8804 51.4464 38.5416 51.5429 37.9265C51.5901 37.6264 51.1375 35.2694 52.2378 34.965H52.24Z" fill="#6E1024"/>
<path d="M55.1825 37.7646C55.3713 39.1482 54.479 40.3051 54.2195 41.5333C53.7798 41.8851 51.2982 43.3205 51.2231 42.8802C52.1154 41.067 53.1792 39.3122 53.7905 37.389C53.9364 37.2746 54.9702 37.6804 55.1825 37.7667V37.7646Z" fill="#E5BD7B"/>
<path d="M50.7942 47.9957L51.65 45.412C51.9009 45.4358 53.7476 45.7941 53.7905 45.8977C53.2608 47.5748 53.5224 48.3368 52.5594 48.3217C52.4693 48.3217 51.0709 48.0562 50.7942 47.9979V47.9957Z" fill="#DCC590"/>
<path d="M51.6501 45.4099L50.7944 47.9936C50.389 47.9072 49.9857 47.7734 49.5632 47.7777L49.4023 47.5079C50.4555 45.0213 50.0029 45.2458 51.6501 45.4077V45.4099Z" fill="#F2E3B6"/>
<path d="M54.2195 41.5333C54.479 40.3051 55.3734 39.146 55.1825 37.7646C55.2426 37.7905 55.5257 37.6998 55.8238 37.9265C55.9118 39.5173 55.4335 40.5576 54.2195 41.5333Z" fill="#EBD5B0"/>
<path d="M41.5372 33.5642C41.9061 33.4649 48.7653 34.324 49.1342 34.4254C49.4302 34.5074 49.6919 34.4945 49.8292 34.8031C50.0522 35.5565 45.34 47.877 44.8531 49.7182L39.343 48.9109L39.772 43.096C43.4676 39.854 43.9266 41.5743 40.201 39.8648C40.557 38.7272 40.3661 33.8772 41.5393 33.5642H41.5372Z" fill="#6E1024"/>
<path d="M41.6979 46.9187C41.6851 45.3257 42.3285 43.886 43.195 42.6104C43.7806 42.1204 44.7758 41.2808 45.4428 41.0498C44.7651 43.0241 44.0873 44.9984 43.4095 46.9726C43.2487 47.2619 41.9596 47.005 41.6979 46.9187Z" fill="#E5BD7B"/>
<path d="M42.8755 38.41L43.8385 35.8263C44.1946 35.8457 46.9893 36.1587 47.0494 36.3119C46.2858 37.8898 46.6697 38.8093 45.6037 38.8417C45.4665 38.846 43.0342 38.4618 42.8755 38.41Z" fill="#DCC590"/>
<path d="M43.8384 35.8263L42.8754 38.41C42.7424 38.369 42.3713 38.3021 42.3413 38.2481L42.663 35.8781C42.8132 35.6148 43.24 35.7896 43.8406 35.8241L43.8384 35.8263Z" fill="#EBD5B0"/>
<path d="M41.698 46.9187C41.5715 46.8755 41.4363 46.7935 41.269 46.7568L41.5908 43.8493C42.1034 43.409 42.6804 43.042 43.1951 42.6104C42.3286 43.8838 41.683 45.3235 41.698 46.9187Z" fill="#EBD5B0"/>
<path d="M22.2763 35.6105C23.0999 35.4702 23.6275 35.6795 24.0415 36.4177C24.7278 37.6437 27.9751 48.8246 27.6792 49.6643C24.1402 51.7709 25.2083 48.8656 23.9879 45.6258L20.0285 46.2711C19.2306 46.7136 20.6119 52.848 17.5662 52.0861C16.7705 51.8875 16.9678 50.4996 16.9785 49.8779C17.0343 46.4611 18.9303 36.1781 22.2763 35.6083V35.6105Z" fill="#6E1024"/>
<path d="M23.2931 42.3945C23.3296 42.6211 23.3853 42.8953 23.5076 43.0938L23.3467 43.2557L20.0823 43.7414C20.7279 42.1225 21.1997 40.072 21.9011 38.5179L22.4352 43.0938C22.6475 43.4629 23.3274 43.1867 23.291 42.3945H23.2931Z" fill="#DCC590"/>
<path d="M23.2929 42.3945C23.3294 43.1866 22.6495 43.4629 22.4371 43.0938L21.9031 38.5179C22.0296 38.2373 22.0596 37.9092 22.2248 38.0322C22.4607 39.4309 23.0763 41.0411 23.2951 42.3945H23.2929Z" fill="#D1AC80"/>
<path d="M34.1545 34.3175C35.0553 34.2182 35.6816 34.6003 36.0269 35.4485C36.2843 36.0788 38.753 48.177 38.4892 48.803C35.1154 50.5082 35.9947 47.8964 35.1711 44.0651C34.9695 43.8471 31.6064 44.4861 31.0509 44.5508C30.1264 47.3762 31.2718 50.8017 27.8937 49.5585C27.7843 46.0984 29.9184 34.7837 34.1545 34.3197V34.3175Z" fill="#6E1024"/>
<path d="M34.101 41.7492C33.2002 41.9564 32.2264 41.9348 31.3191 42.1269C31.2012 41.9283 32.8892 38.3388 33.138 37.8725C34.0281 37.8207 33.2195 40.6138 34.101 41.7492Z" fill="#DCC590"/>
<path d="M34.101 41.7491C33.2194 40.6137 34.0281 37.8207 33.1379 37.8725C33.3567 37.4624 33.6377 37.0846 33.7792 36.6335C34.0259 36.4997 34.6136 41.1188 34.8495 41.4793C34.8238 41.7599 34.264 41.7103 34.101 41.7491Z" fill="#D1AC80"/>
<path d="M64.3304 38.1941C64.4998 38.166 65.5894 38.1639 65.7224 38.1941C68.3927 38.8028 66.4881 51.1104 65.8832 53.4329L65.6151 53.5948C64.9545 53.3976 64.2946 53.2005 63.6354 53.0034C63.8142 51.3874 63.9922 49.7721 64.1695 48.1576C62.7968 47.7446 61.4234 47.3316 60.0492 46.9186C59.6482 47.4842 58.0095 51.4644 57.6942 51.5486C57.454 51.6133 56.107 51.1903 55.6609 51.1169C56.1006 47.9806 61.3104 38.7078 64.3282 38.1941H64.3304Z" fill="#6E1024"/>
<path d="M64.6522 40.2404C65.0382 40.2943 64.4977 44.9199 64.5985 45.4639L64.4377 45.6257C63.3324 45.3739 62.2263 45.1228 61.1196 44.8724C60.8 44.5336 64.1095 40.7195 64.65 40.2425L64.6522 40.2404Z" fill="#DCC590"/>
<path d="M13.0192 47.4561C12.6974 47.5705 12.3693 47.5899 12.0561 47.7259C12.0368 47.7691 12.2577 48.531 12.2706 48.6411C12.4143 49.9729 13.6712 53.4459 11.788 53.8107C10.7263 54.0157 10.5397 53.4049 10.2373 52.5717C9.49517 50.5298 8.28762 40.998 9.27425 39.4331C10.1601 38.0301 16.7962 36.5623 17.4075 41.6952C17.83 45.2437 15.8997 46.4244 13.0192 47.4561Z" fill="#6E1024"/>
<path d="M14.304 44.0112C13.5726 44.9048 11.6165 45.4013 11.5222 45.2502C11.5372 44.022 10.8808 41.639 11.6294 40.78C13.8922 40.9116 13.9866 42.1743 13.6627 44.1731L14.304 44.0112Z" fill="#E2C099"/>
<path d="M14.304 44.0112L13.6627 44.1731C13.9866 42.1743 13.8922 40.9116 11.6294 40.78C13.0085 39.1957 16.2859 41.5872 14.304 44.0112Z" fill="#D1AC80"/>
<path d="M52.2398 19.9961C52.8532 19.7889 53.0934 20.0004 53.2565 20.4817C53.6404 21.6128 54.5562 29.0487 54.968 31.2503H53.576C53.4516 30.1912 53.3265 29.1322 53.2007 28.0731L49.3485 28.5048C48.4606 29.7243 49.5116 32.172 47.4225 31.1964C47.1222 29.6703 51.5727 20.2227 52.2377 19.9961H52.2398Z" fill="#0B301B"/>
<path d="M52.2399 21.3948C52.5788 23.2439 52.9177 25.0922 53.2566 26.9399L49.7798 27.4255L49.6189 27.2637L52.2399 21.3948Z" fill="#F6E9CD"/>
<path d="M57.3745 19.1348C59.1183 18.8628 58.5156 22.4459 56.197 23.2273C56.3429 22.3768 56.4737 19.2751 57.3745 19.1348Z" fill="#0B301B"/>
<path d="M57.5891 19.6723C57.9451 19.5277 58.3569 20.499 57.5891 21.0731C57.3639 21.0386 57.3274 19.7802 57.5891 19.6723Z" fill="#EBF3F2"/>
<path d="M36.0269 21.8264C35.8682 22.079 34.9202 23.9914 34.7958 23.9806C34.3218 22.8301 34.0687 21.6019 33.6719 20.4277L36.0269 21.8286V21.8264Z" fill="#F6E9CD"/>
<path d="M33.0307 19.7802C31.2076 22.7546 28.7582 28.2652 28.6424 31.6259C28.6252 31.6281 28.4429 31.8331 28.3743 31.8418C28.0311 31.8828 25.912 31.7403 24.6294 31.8418C18.7289 32.3058 12.8156 33.0786 7.02661 34.3197C7.81806 28.9386 9.7141 24.2763 12.9121 19.8881C18.227 18.8024 27.7051 17.121 32.6554 19.3507C33.1208 19.5601 33.005 19.7673 33.0307 19.7824V19.7802Z" fill="#F6E9CD"/>
<path d="M19.2799 19.6723C19.9856 19.4996 20.2623 20.4018 20.2966 20.9112C20.3395 21.5178 19.3121 30.6222 19.0118 31.0345C18.7716 31.3647 17.697 31.1942 17.6198 30.9265C17.4933 30.4862 19.2692 23.1517 19.0118 21.8804C17.0343 25.3534 15.8031 27.7579 14.9988 21.9343C14.098 23.8575 13.772 30.0912 13.5532 30.7107C13.298 31.4338 12.2427 31.4921 12.0561 30.9265C11.8824 30.402 13.8749 20.7386 14.6771 20.3198C15.949 19.655 15.9747 22.1502 16.7104 23.3352C17.1908 22.8927 18.9797 19.7478 19.2778 19.6744L19.2799 19.6723Z" fill="#0B301B"/>
<path d="M26.0213 19.6723C26.5211 19.545 26.6283 19.8385 26.7162 20.2637C26.9865 21.5567 27.4112 28.971 27.7865 31.464C26.0299 31.9627 26.7999 30.633 26.3409 28.2868L22.2743 28.3947C21.7938 28.7098 21.5858 31.2525 21.4721 31.3561C21.3927 31.4295 20.0007 31.8288 20.2946 30.279C20.7021 28.1206 24.8459 19.9723 26.0192 19.6723H26.0213Z" fill="#0B301B"/>
<path d="M25.6995 21.1789C25.8954 23.1359 26.0913 25.0922 26.2872 27.0478L22.7031 27.2097L25.6995 21.1789Z" fill="#EEEBCA"/>
<path d="M39.6646 7.61075C36.2736 9.32457 40.0421 8.91446 40.4132 9.7649C39.7311 9.46703 39.167 9.32241 38.4871 9.33321C38.4635 9.33321 38.3048 9.10873 38.0045 9.22528C37.7364 9.32889 37.6484 9.73684 37.6291 9.76274C37.6206 9.77569 37.434 9.81023 37.4147 9.97859C37.4297 9.92679 37.3031 9.81239 37.6828 9.00944C33.3523 8.77632 31.5742 15.4978 36.2908 18.1635C39.8769 20.1882 43.5725 17.6886 43.5146 17.2483C43.4653 16.8684 42.6738 17.3195 42.766 16.8706C42.8776 16.8922 43.3087 17.1771 43.8363 16.7627C44.7157 17.5311 44.5205 16.2209 45.1211 15.7935C44.7608 17.2203 43.8063 18.483 42.5537 19.2406C41.5285 19.8601 40.3209 20.2594 39.1284 20.3177C37.8222 20.3824 36.2093 20.1191 35.0618 19.4564C34.2253 18.9708 33.1421 17.7318 32.7067 16.8727C30.4267 12.3637 33.5625 6.94594 39.6625 7.61075H39.6646Z" fill="#B82D43"/>
<path d="M45.0161 12.2407C45.147 12.6854 45.2692 13.1861 45.3379 13.6416C45.3743 14.3668 45.3014 15.0921 45.1234 15.7957C44.5228 16.2231 44.7201 17.5333 43.8386 16.7649C44.1839 16.4929 44.3341 15.6036 44.2676 15.2043C44.0059 13.6804 43.5769 15.3597 40.8423 15.1503L39.4502 13.4818C39.4674 13.3264 41.0417 11.3212 41.2691 10.9521C41.4557 11.6644 41.2112 13.2984 42.2857 13.43C43.8708 13.6243 42.4916 10.4039 41.3763 10.5226C40.9645 10.5657 38.5987 12.3853 38.4872 12.1911C38.4486 11.9342 38.5001 11.6342 38.4872 11.3838C38.9977 11.0816 40.6986 10.419 40.4133 9.76927C40.0422 8.92099 36.2716 9.32894 39.6647 7.61511C42.5774 7.93241 44.1947 9.48219 45.0161 12.245V12.2407Z" fill="#B82D43"/>
<path d="M42.5537 19.2406C43.8084 18.4829 44.7629 17.2202 45.1211 15.7935C45.2991 15.0898 45.372 14.3646 45.3356 13.6393C45.5265 14.9258 45.7023 16.1237 45.1211 17.3541C44.9216 17.775 43.1221 19.9896 42.5537 19.2384V19.2406Z" fill="#EBD5B0"/>
<path d="M37.419 9.98074C37.346 10.2354 37.0865 10.6002 36.99 10.8959C36.8313 12.4112 37.4318 12.8472 37.419 13.0501C36.3873 14.4099 35.9905 18.5693 37.7943 14.6107C38.3241 14.5869 38.8281 14.7466 39.345 14.8265C39.6603 14.874 39.9692 14.997 40.3081 15.0424C39.9199 15.5172 41.9317 16.7152 42.7704 16.8727C42.6781 17.3217 43.4696 16.8706 43.5189 17.2505C43.5768 17.6908 39.8812 20.1925 36.2951 18.1657C31.5785 15.5021 33.3566 8.77847 37.6871 9.01159C37.3074 9.81454 37.434 9.92894 37.419 9.98074Z" fill="#CF4252"/>
<path d="M43.8386 16.7648C43.3109 17.1792 42.8798 16.8943 42.7683 16.8727C41.9318 16.7152 39.9199 15.5172 40.306 15.0424C40.3425 15.0467 40.4154 15.1179 40.8401 15.1503C43.5747 15.3597 44.0037 13.6804 44.2654 15.2042C44.334 15.6036 44.1839 16.4928 43.8364 16.7648H43.8386Z" fill="#E5BD7B"/>
<path d="M38.4871 9.33323C38.5107 10.0132 38.4549 10.6995 38.4871 11.3795C38.5 11.632 38.4485 11.9299 38.4871 12.1867C38.5986 12.381 40.9665 10.5614 41.3762 10.5182C41.4084 10.6909 41.3548 10.8096 41.269 10.9499C41.0416 11.319 39.4673 13.3264 39.4501 13.4797L40.8421 15.1481C40.4153 15.1158 40.3445 15.0445 40.3081 15.0402C39.9692 14.9949 39.6603 14.8719 39.345 14.8244C39.1434 14.6992 37.7686 14.2567 37.6871 14.2869C37.5584 14.3323 36.5095 16.1799 37.7407 13.2638C37.3868 11.945 38.3305 9.40446 37.6334 9.76493C37.6528 9.73687 37.7407 9.33107 38.0088 9.22747C38.3091 9.11091 38.4656 9.33539 38.4914 9.33539L38.4871 9.33323Z" fill="#3D7627"/>
<path d="M39.3452 14.8265C38.8261 14.7488 38.3242 14.5869 37.7945 14.6107C35.9906 18.5693 36.3874 14.4078 37.4191 13.0501C37.4341 12.8472 36.8314 12.4112 36.9901 10.896C37.0845 10.6002 37.3462 10.2355 37.4191 9.98076C37.4384 9.8124 37.625 9.77786 37.6336 9.76491C38.3307 9.40445 37.3869 11.9471 37.7408 13.2638C36.5097 16.1799 37.5585 14.3322 37.6872 14.2869C37.7687 14.2588 39.1436 14.6992 39.3452 14.8244V14.8265Z" fill="#3D7627"/>
<path d="M40.4154 9.7649C40.7006 10.4146 38.9998 11.0772 38.4893 11.3794C38.4571 10.6995 38.5129 10.0131 38.4893 9.3332C39.1692 9.32241 39.7333 9.46703 40.4154 9.7649Z" fill="#FEE1C6"/>
<path d="M41.2712 10.9499C41.357 10.8096 41.4107 10.6931 41.3785 10.5182C42.4938 10.3995 43.8729 13.6199 42.2879 13.4257C41.2133 13.294 41.4578 11.6622 41.2712 10.9478V10.9499Z" fill="#FEE1C6"/>
<path d="M66.8462 55.1014C66.0269 56.6879 65.1432 58.0952 64.0644 59.5177C62.5458 60.1414 61.1367 61.4819 59.6224 62.3172C59.2235 62.5374 56.5896 63.8238 56.4116 63.8238C55.4507 63.8281 58.9189 60.707 57.75 60.3767C59.5623 58.4449 56.4952 57.5729 55.663 57.793C55.5644 57.8189 55.515 58.0067 55.5021 58.0089C55.337 58.0348 55.4507 58.296 55.1804 58.2247L53.7884 58.3327C53.7841 58.3089 53.5675 58.4384 53.4667 57.9549C53.4152 57.711 53.5889 57.6527 53.5739 57.5772C54.5713 57.506 55.0946 56.8843 55.5 56.0706C55.5708 55.9281 55.9783 55.3971 55.929 55.2633C54.3354 54.7798 53.1771 54.2359 53.0399 55.5331C52.9991 55.926 53.1385 55.9972 53.1471 56.0706C52.6881 55.954 52.7246 55.8224 52.5058 56.2864C52.465 56.2325 52.6281 55.9454 51.9717 56.1785C46.3222 51.3975 31.0359 51.4493 25.4335 56.0706C25.3992 56.0511 24.8051 55.8957 24.685 55.8547C24.6593 55.8461 24.7429 55.6907 24.1509 55.7468C24.2131 54.51 23.1579 53.8819 22.6002 55.2093C20.9787 53.584 20.5583 57.5729 23.6169 57.4714C23.5053 58.0434 23.4088 58.0844 23.4024 58.1168C22.9391 58.1362 22.4651 58.0974 22.0104 58.0089C21.6243 57.9355 21.4484 57.8146 21.2618 57.793C19.0591 57.5534 18.3169 58.978 19.443 60.3767C16.8477 61.2034 11.6572 55.2655 12.0068 54.8856C20.5433 52.2911 32.2992 49.6427 41.1145 49.9319C48.4628 50.1736 59.6889 52.8178 66.8505 55.1014H66.8462Z" fill="#E2C099"/>
<path d="M35.3857 68.6717C35.375 69.4056 36.915 68.6868 37.4727 68.6717C39.7419 68.607 41.8653 70.1611 43.9994 70.7179L43.8386 71.2554C40.1023 71.9979 36.278 72.1145 39.7183 72.3325L37.6314 72.4404C34.5986 72.3476 31.5808 71.9245 28.696 70.9338C27.7758 70.6187 26.8471 69.9819 26.075 69.6409V69.2092C27.1924 69.861 26.2058 69.6042 27.1452 68.8854C29.807 69.8869 32.7132 69.2502 35.3857 68.6696V68.6717Z" fill="#E2C099"/>
<path d="M24.6828 55.8569C24.4276 56.5174 24.4962 57.2146 24.3611 57.9031C23.8463 60.5537 21.9482 63.7159 24.7901 67.1112C25.3027 67.722 26.4073 68.6113 27.1451 68.8876C26.2057 69.6064 27.1923 69.8632 26.0748 69.2114C25.8175 69.0624 25.6008 68.9049 25.3263 68.7797C25.3091 68.6156 25.1225 68.5746 25.1118 68.5638C22.8125 66.1895 22.272 64.1303 22.7568 60.8106C22.7997 60.5106 23.1235 60.1264 23.1857 59.7875C23.2822 59.2565 23.2908 58.637 23.4002 58.119C23.4066 58.0866 23.5032 58.0434 23.6147 57.4736C23.7091 56.9901 24.1445 55.8396 24.1488 55.7511C24.7429 55.695 24.6571 55.8504 24.6828 55.8591V55.8569Z" fill="#9FB45D"/>
<path d="M51.9717 56.1785C51.9267 56.1936 51.1567 56.5843 51.1159 56.6102C45.046 52.4724 32.2113 52.5091 26.1821 56.6102C26.1628 56.5951 25.9097 56.6318 25.6995 56.5023C25.3864 56.3102 25.455 56.0835 25.4314 56.0706C31.0337 51.4493 46.3201 51.3975 51.9696 56.1785H51.9717Z" fill="#4E121B"/>
<path d="M53.1493 56.0706C53.205 56.5756 53.5075 57.2275 53.5782 57.5772C53.5932 57.6527 53.4217 57.711 53.471 57.9549C53.5718 58.4362 53.7863 58.3067 53.7927 58.3326C53.9343 59.0622 54.3976 60.735 54.434 61.2401C54.6571 64.2706 53.2865 67.9529 50.4746 69.425C50.4339 69.4466 49.8333 69.6603 49.6188 69.7488C49.6617 69.4358 49.5953 69.2351 49.2971 69.1034C53.9493 67.5299 54.7343 61.266 52.2935 57.5815C52.9112 57.3268 52.8962 56.8044 52.508 56.2886C52.7267 55.8245 52.6903 55.9562 53.1493 56.0727V56.0706Z" fill="#9FB45D"/>
<path d="M25.4336 56.0706C25.455 56.0835 25.3885 56.3102 25.7017 56.5023C25.9119 56.6318 26.1628 56.5951 26.1843 56.6102C26.5274 56.8498 27.6814 57.5038 26.7719 57.7952C25.2555 58.2809 25.1183 56.5994 24.4705 58.3327L24.3633 57.901C24.4963 57.2124 24.4276 56.5174 24.685 55.8547C24.8073 55.8957 25.3992 56.0512 25.4336 56.0706Z" fill="#2E5D28"/>
<path d="M52.5058 56.2864C52.8961 56.8023 52.909 57.3225 52.2913 57.5794C51.1009 58.0715 49.1277 57.8837 51.1138 56.6102C51.1545 56.5843 51.9245 56.1958 51.9696 56.1785C52.6259 55.9454 52.4629 56.2303 52.5036 56.2864H52.5058Z" fill="#1B4E20"/>
<path d="M24.1489 55.749C24.1446 55.8396 23.707 56.9879 23.6148 57.4714C20.5562 57.5729 20.9766 53.584 22.5981 55.2094C23.1558 53.8819 24.2111 54.5122 24.1489 55.7468V55.749Z" fill="#2D1412"/>
<path d="M21.2596 57.7952C18.6536 58.7989 20.8371 60.6142 21.6886 59.0342C21.9974 58.46 21.6328 58.2291 22.0103 58.0111C22.465 58.0995 22.9369 58.1384 23.4023 58.119C23.2951 58.6392 23.2843 59.2565 23.1878 59.7875C23.1256 60.1263 22.8039 60.5106 22.7588 60.8106C21.7358 61.456 20.2537 61.3891 19.4408 60.3789C18.3147 58.9802 19.059 57.5535 21.2596 57.7952Z" fill="#2D1412"/>
<path d="M22.0084 58.011C21.6309 58.2269 21.9955 58.46 21.6866 59.0341C20.8373 60.6141 18.6538 58.801 21.2577 57.7952C21.4443 57.8146 21.6201 57.9355 22.0062 58.011H22.0084Z" fill="#57231D"/>
<path d="M55.5022 56.0706C55.0947 56.8843 54.5735 57.5081 53.5761 57.5772C53.5053 57.2275 53.2029 56.5757 53.1472 56.0706C53.1386 55.9972 52.9992 55.9238 53.0399 55.5331C53.8607 55.713 54.6814 55.8922 55.5022 56.0706Z" fill="#2D1412"/>
<path d="M55.5023 56.0706C54.6816 55.8907 53.8608 55.7116 53.04 55.5331C53.1773 54.2381 54.3377 54.782 55.9291 55.2633C55.9785 55.3972 55.5731 55.9281 55.5002 56.0706H55.5023Z" fill="#57231D"/>
<path d="M57.7499 60.3789C56.8555 61.3329 55.6394 61.2811 54.4318 61.2401C54.3954 60.735 53.9321 59.0622 53.7905 58.3327L55.1825 58.2247C54.8436 58.4859 55.7509 59.3558 55.8775 59.4097C57.1987 59.9709 57.3681 57.8341 55.5021 58.0089C55.515 58.0089 55.5643 57.8189 55.663 57.793C56.4952 57.575 59.5602 58.4471 57.7499 60.3767V60.3789Z" fill="#2D1412"/>
<path d="M55.1825 58.2247C55.4528 58.2959 55.3391 58.0348 55.5043 58.0089C57.3703 57.8319 57.1987 59.9709 55.8796 59.4097C55.7531 59.3557 54.8458 58.4859 55.1847 58.2247H55.1825Z" fill="#6B3825"/>
<path d="M24.4705 58.3326C23.7927 60.1522 23.8377 62.0992 24.3632 63.9317C26.0019 69.656 31.482 68.9091 36.0805 67.7004C35.9218 67.4975 35.5164 67.4565 35.2783 67.3766C34.6092 67.1543 31.9989 66.4485 31.9603 65.7621C33.3458 66.0146 34.6928 66.4895 36.0805 66.7312C37.4125 66.9644 38.6629 66.3319 37.8457 67.8083C37.2194 67.8709 35.9239 68.553 35.3834 68.6695C32.7131 69.248 29.8068 69.8869 27.1429 68.8854C26.4073 68.6091 25.3005 67.7198 24.7879 67.109C21.9481 63.7159 23.8463 60.5515 24.3589 57.9009L24.4662 58.3326H24.4705Z" fill="#1B4E20"/>
<path d="M38.809 67.8105C40.1474 67.9378 45.1191 70.515 49.2951 69.1034C49.5933 69.2351 49.6598 69.438 49.6169 69.7488C48.1755 70.3359 45.4494 70.936 43.8386 71.2554L43.9995 70.7179C41.8654 70.1611 39.7398 68.607 37.4727 68.6717C36.9151 68.6868 35.3751 69.4056 35.3858 68.6717C35.9263 68.5552 37.2218 67.8731 37.8481 67.8105C37.8953 67.8062 38.7639 67.8062 38.8111 67.8105H38.809Z" fill="#D1AC80"/>
<path d="M49.2972 69.1012C45.1212 70.5129 40.1495 67.9357 38.8111 67.8083C38.8132 67.6292 38.8068 67.45 38.8111 67.2709C38.8282 66.5953 38.9162 66.7593 38.9183 66.7334C40.8086 66.4816 42.699 66.2305 44.5893 65.9801C44.3319 66.8478 42.3844 67.191 41.5929 67.3809C40.8787 67.5536 40.3146 67.396 40.898 67.7047C41.8139 68.1882 45.8998 68.7667 46.998 68.6739C49.4195 68.4666 51.7402 66.6406 52.6153 64.3656C53.4625 62.1682 53.3617 59.686 52.2936 57.5815C54.7344 61.266 53.9494 67.5299 49.2972 69.1034V69.1012Z" fill="#1B4E20"/>
<path d="M40.5205 60.4868C41.2605 60.8343 39.5125 63.6037 39.7184 63.7181C41.3978 64.1152 42.2321 63.6511 42.4466 61.8877C44.051 61.9891 45.6553 61.6912 47.2618 61.7797C47.2189 62.0496 47.2103 64.29 47.3154 64.3634C48.4865 64.5599 51.485 64.0936 52.3987 64.3634C49.7477 68.7041 46.0886 68.6847 41.5908 67.3788C42.3823 67.1889 44.3298 66.8457 44.5872 65.978C44.5936 65.9564 44.8188 65.9348 44.6408 65.5463L39.0234 65.4384C39.0191 65.0628 38.8604 63.1914 38.5408 63.0684C37.9918 62.859 38.1569 63.9663 38.1655 65.4384C36.04 65.7038 31.909 64.8405 31.9583 65.7621C31.9969 66.4507 34.6072 67.1565 35.2764 67.3767C31.139 68.4947 26.4289 68.4278 24.4685 63.9296C24.5757 63.3705 27.3447 63.5972 28.3743 63.7137C28.5973 63.649 28.3013 61.8359 28.4279 61.3977C28.5394 61.0113 28.799 61.6157 29.0692 61.2358C29.0585 61.2552 29.125 61.4193 28.8547 61.6135L29.0156 61.7754H38.3264L38.6481 59.6213C39.624 60.9595 39.5039 61.9805 40.5205 60.4825V60.4868Z" fill="#EBD5B0"/>
<path d="M35.2784 67.3788C35.5165 67.4587 35.9219 67.4997 36.0806 67.7026C31.482 68.9113 26.0019 69.6582 24.3633 63.9339H24.4705C26.4309 68.4322 31.141 68.4991 35.2784 67.381V67.3788Z" fill="#9FB45D"/>
<path d="M38.1676 65.4405C38.1719 66.1916 37.8931 68.6523 38.8089 67.2709C38.8046 67.45 38.8111 67.6292 38.8089 67.8083C38.7617 67.804 37.8931 67.804 37.8459 67.8083C38.6631 66.3319 37.4126 66.9644 36.0807 66.7313C34.693 66.4895 33.3482 66.0146 31.9604 65.7621C31.909 64.8404 36.0421 65.706 38.1676 65.4383V65.4405Z" fill="#9FB45D"/>
<path d="M47.2638 61.7797C45.6573 61.6912 44.0529 61.9891 42.4486 61.8876C42.0089 61.8596 41.5649 61.9977 41.3783 61.7257L41.3247 58.9802C41.2475 58.9435 40.5954 60.381 40.5225 60.4868C39.5037 61.9826 39.626 60.9638 38.6501 59.6256L38.3283 61.7797H29.0176L28.8567 61.6178C29.1248 61.4236 29.0604 61.2595 29.0712 61.2401C29.1548 61.0868 30.8771 59.2435 31.319 58.6024C27.2459 58.3434 28.4964 56.8908 33.1378 57.4174C33.037 58.5809 29.616 61.7754 31.9067 60.9163C32.4343 60.7199 33.9271 56.7267 35.2247 57.1476C36.5245 57.5685 33.7212 59.8414 33.8327 60.5947H37.2581C37.5283 60.4026 36.9792 53.7847 39.8254 59.5176C40.7177 58.5096 41.048 56.2735 42.6609 57.6333C42.7875 63.0942 41.8201 61.6934 45.7645 58.7104C45.5157 58.3844 42.2813 59.3234 42.9827 57.6333C43.1607 57.2038 47.6327 57.2297 47.7978 57.6333C48.096 58.3607 45.7366 60.0724 45.2305 60.6487C46.6525 60.9077 47.9501 60.1306 47.5855 61.7257C47.5619 61.825 47.2681 61.7624 47.2638 61.7797Z" fill="#241B12"/>
<path d="M52.613 64.3634C51.7357 66.6363 49.4172 68.4645 46.9956 68.6717C45.8975 68.7645 41.8115 68.1861 40.8957 67.7026C40.3123 67.3939 40.8764 67.5515 41.5906 67.3788C46.0884 68.6847 49.7475 68.7041 52.3985 64.3634C52.4521 64.3785 52.5422 64.3548 52.613 64.3634Z" fill="#89A54E"/>
<path d="M51.1159 56.6102C49.1276 57.8837 51.103 58.0715 52.2934 57.5794C53.3594 59.6839 53.4602 62.1683 52.6152 64.3634C52.5465 64.3548 52.4543 64.3785 52.4007 64.3634C51.487 64.0936 48.4885 64.5598 47.3174 64.3634C47.2123 64.2879 47.2209 62.0474 47.2638 61.7797C47.2659 61.7646 47.5619 61.8251 47.5855 61.7258C47.9501 60.1307 46.6525 60.9077 45.2304 60.6487C45.7388 60.0724 48.0981 58.3607 47.7978 57.6333C47.6327 57.2297 43.1607 57.2038 42.9826 57.6333C42.2813 59.3234 45.5157 58.3845 45.7645 58.7104C41.8201 61.6934 42.7875 63.0942 42.6609 57.6333C41.048 56.2735 40.7177 58.5097 39.8254 59.5177C36.9792 53.7848 37.5262 60.4026 37.2581 60.5947H33.8327C33.7191 59.8436 36.5245 57.5707 35.2247 57.1477C33.9293 56.7289 32.4343 60.7199 31.9067 60.9164C29.616 61.7754 33.0349 58.5809 33.1378 57.4175C28.4964 56.8908 27.2459 58.3435 31.319 58.6025C30.8771 59.2435 29.1548 61.089 29.0712 61.2401C28.8009 61.62 28.5414 61.0156 28.4299 61.402C28.3033 61.8402 28.5993 63.6533 28.3762 63.718C27.3467 63.6015 24.5777 63.3749 24.4705 63.9339H24.3632C23.8377 62.1014 23.7927 60.1523 24.4705 58.3348C25.1161 56.6016 25.2555 58.283 26.7719 57.7974C27.6813 57.506 26.5274 56.852 26.1842 56.6124C32.2134 52.5113 45.0481 52.4746 51.1181 56.6124L51.1159 56.6102Z" fill="#E2C099"/>
<path d="M51.3818 57.9031C52.392 57.7844 51.311 59.5629 51.0601 59.5176C50.7512 59.4637 50.3223 58.0283 51.3818 57.9031Z" fill="#0B301B"/>
<path d="M25.4872 57.9031C25.6073 57.8664 26.4631 58.2744 26.7719 58.2269C26.3473 60.2062 24.8008 58.1103 25.4872 57.9031Z" fill="#071D09"/>
<path d="M44.587 65.9801C42.6967 66.2319 40.8063 66.483 38.916 66.7334C38.9503 66.4096 39.0254 65.693 39.0233 65.4405L44.6406 65.5484C44.8208 65.9348 44.5934 65.9585 44.587 65.9801Z" fill="#9FB45D"/>
<path d="M39.0234 65.4405C39.0256 65.693 38.9505 66.4096 38.9162 66.7334C38.914 66.7615 38.8261 66.5953 38.8089 67.2709C37.8909 68.6523 38.1719 66.1916 38.1676 65.4405C38.1569 63.9706 37.9939 62.8611 38.543 63.0705C38.8626 63.1935 39.0191 65.0649 39.0256 65.4405H39.0234Z" fill="#61832F"/>
<path d="M42.4466 61.8877C42.2321 63.6511 41.3977 64.1174 39.7183 63.718C39.5146 63.6036 41.2605 60.8343 40.5205 60.4868C40.5934 60.3789 41.2476 58.9414 41.3227 58.9802L41.3763 61.7258C41.5629 61.9977 42.0069 61.8596 42.4466 61.8877Z" fill="#EBD5B0"/>
</g>
<defs>
<clipPath id="clip0_11_7688">
<rect width="77" height="79" fill="white"/>
</clipPath>
</defs>
</svg>
