<svg width="10" height="7" viewBox="0 0 10 7" fill="none" xmlns="http://www.w3.org/2000/svg">
<path fill-rule="evenodd" clip-rule="evenodd" d="M4.99991 4.25834C5.98032 4.25834 6.87794 4.61703 7.55967 5.20626C7.71359 5.3394 7.80724 5.52701 7.82001 5.72782C7.83278 5.92863 7.76362 6.12618 7.62776 6.27702C7.4919 6.42787 7.30046 6.51964 7.09556 6.53215C6.89065 6.54467 6.68907 6.4769 6.53515 6.34376C6.1117 5.97638 5.56544 5.77401 4.99991 5.77501C4.41104 5.77501 3.87401 5.98886 3.46467 6.34376C3.38846 6.40963 3.29975 6.46015 3.20361 6.49243C3.10748 6.52471 3.00579 6.53812 2.90437 6.53189C2.80295 6.52565 2.70377 6.49991 2.6125 6.45611C2.52123 6.41232 2.43966 6.35133 2.37244 6.27665C2.30522 6.20196 2.25367 6.11502 2.22073 6.02081C2.18779 5.9266 2.17411 5.82695 2.18047 5.72755C2.18683 5.62816 2.2131 5.53096 2.25779 5.44152C2.30248 5.35208 2.36471 5.27213 2.44092 5.20626C3.1471 4.59452 4.05739 4.25733 4.99991 4.25834ZM2.29157 0.466675C2.59941 0.466675 2.89465 0.586518 3.11232 0.799841C3.33 1.01316 3.45229 1.30249 3.45229 1.60417C3.45229 1.90586 3.33 2.19519 3.11232 2.40851C2.89465 2.62183 2.59941 2.74167 2.29157 2.74167C1.98373 2.74167 1.6885 2.62183 1.47082 2.40851C1.25315 2.19519 1.13086 1.90586 1.13086 1.60417C1.13086 1.30249 1.25315 1.01316 1.47082 0.799841C1.6885 0.586518 1.98373 0.466675 2.29157 0.466675ZM7.70824 0.466675C8.01608 0.466675 8.31131 0.586518 8.52899 0.799841C8.74667 1.01316 8.86895 1.30249 8.86895 1.60417C8.86895 1.90586 8.74667 2.19519 8.52899 2.40851C8.31131 2.62183 8.01608 2.74167 7.70824 2.74167C7.4004 2.74167 7.10517 2.62183 6.88749 2.40851C6.66982 2.19519 6.54753 1.90586 6.54753 1.60417C6.54753 1.30249 6.66982 1.01316 6.88749 0.799841C7.10517 0.586518 7.4004 0.466675 7.70824 0.466675Z" fill="white"/>
</svg>
