<svg width="393" height="143" viewBox="0 0 393 143" fill="none" xmlns="http://www.w3.org/2000/svg">
<g clip-path="url(#clip0_13_2148)">
<g clip-path="url(#clip1_13_2148)">
<rect width="472" height="273" transform="translate(-41 -50)" fill="white"/>
<path d="M392.915 0H-3.22437V272.696H392.915V0Z" fill="#0F1010"/>
<path d="M50.9442 0.106651C53.5418 11.6985 54.5033 23.5089 57.1318 35.0848C58.6206 41.6378 58.7912 47.5831 65.0641 50.1158C71.1586 52.5738 82.5259 52.8884 88.6592 50.3824C94.4669 48.0096 94.1335 42.9602 95.4284 38.9452C99.5612 26.127 103.043 13.0262 105.873 0.106651C127.281 0.0959873 148.682 0.111983 170.091 0.106651C173.44 23.9355 209.558 36.0552 236.239 18.5928C229.331 6.76103 228.772 2.01019 208.387 0.106651C216.382 0.106651 224.376 0.106651 232.37 0.106651C235.797 10.92 230.85 8.16335 248.808 6.48909C249.25 7.00097 249.413 7.54484 249.778 8.08337C250.879 9.72564 252.197 14.5671 255.19 17.1265C247.684 16.4387 241.295 18.3955 235.464 21.1149C235.371 21.1575 235.193 20.5976 233.339 21.6481C228.431 24.4207 219.072 33.3999 218.638 37.8734C222.205 38.1134 226.105 37.5695 226.57 37.6068C233.13 38.108 248.002 43.9786 262.742 38.6732C263.835 38.2787 267.867 35.8526 271.83 34.4183C278.917 31.8536 286.384 29.4648 293.882 27.5026C292.184 32.4721 291.726 39.601 295.813 44.1279C302.101 51.0809 322.3 51.6621 332.558 46.9219C336.218 45.2316 337.591 43.7813 339.909 41.3339C342.894 38.172 348.671 28.585 349.19 25.3751C353.186 24.4012 357.185 23.4254 361.186 22.4479C359.309 24.3087 356.789 26.0683 355.774 27.236C354.122 29.1236 353.005 30.8351 352.68 33.0906C350.4 48.8148 371.723 56.9461 392.907 50.3824C392.907 51.3581 392.907 52.3339 392.907 53.3097L384.975 56.7701L382.85 57.0368C357.061 49.7159 332.116 63.4672 339.521 82.044C339.165 82.0226 339.095 82.3372 338.746 82.3106C336.994 80.3377 337.118 78.5942 337.195 76.3227L336.42 75.9228C296.138 54.4827 244.676 41.078 193.29 43.9999C192.096 44.8211 193.306 49.9238 193.29 51.1822C193.267 54.0082 193.36 56.8821 193.29 59.6921C193.236 61.8729 192.531 64.1283 192.903 66.3411C192.639 66.4425 192.166 66.5864 192.127 66.6077C189.46 68.1807 194.182 74.3712 188.646 72.9902C188.646 72.3717 188.646 71.7478 188.646 71.1293C188.63 67.029 188.405 62.9873 188.258 58.8923C188.173 56.4662 188.638 45.269 188.258 44.5278C188.018 44.0586 187.545 44.3252 187.483 44.2612C185.684 42.507 177.829 45.0877 183.226 41.3339C187.297 41.3073 191.344 41.2699 195.415 41.3339V40.8007C165.493 33.5705 136.113 19.5419 107.602 9.41105C104.152 17.8996 100.639 38.1667 97.3513 44.6558C92.7533 53.7256 81.0914 53.9068 101.608 49.5772C103.601 51.6354 106.78 49.7479 107.796 50.377C92.9704 53.283 75.6792 58.1192 62.5363 63.6751C61.4042 63.6271 60.8382 63.2059 60.6056 62.3475C67.0878 59.0149 60.9312 61.3344 57.8995 62.3475C58.9385 60.9771 61.5438 61.4943 60.6056 60.22C61.3655 59.9374 62.7922 59.6281 62.3502 59.4202C55.5164 58.4462 48.6827 57.4704 41.8489 56.4929C40.3446 56.8448 42.2056 62.9873 33.3351 67.9301C27.4654 71.204 5.2737 77.3091 -3.22458 80.9669C-3.22458 74.6698 -3.23234 68.378 -3.22458 62.0809C1.62936 66.2985 8.77847 68.266 16.5014 68.4633C28.1555 68.7619 36.708 66.1225 39.3211 57.9539C39.67 56.8661 43.5392 39.1531 43.9657 36.6737C44.6403 32.712 46.602 18.6195 46.2841 15.9268C45.6483 10.4668 39.135 7.35288 32.3581 5.41735C22.4951 2.60204 15.315 2.53806 5.28145 4.88415C2.23417 5.60931 -0.448683 6.40378 -3.20907 7.5555C-3.1548 5.07077 -3.2556 2.58605 -3.20907 0.106651C14.842 0.0853232 32.8931 0.133311 50.9442 0.106651Z" fill="#0F1010"/>
<path d="M170.866 0.106628L181.117 4.89479C187.501 3.29874 193.885 1.70268 200.269 0.106628C202.975 0.106628 205.681 0.106628 208.395 0.106628C228.78 2.01016 229.338 6.761 236.247 18.5928C209.566 36.0552 173.448 23.9355 170.099 0.106628C170.355 0.106628 170.618 0.106628 170.874 0.106628H170.866Z" fill="#58752C"/>
<path d="M52.4952 0.106628C59.9389 6.85698 70.8409 10.9626 81.5103 14.871C81.4328 18.5981 75.974 38.9878 77.2534 40.6727C80.448 44.8797 91.1949 38.7692 95.4363 38.9451C94.1414 42.9602 94.4748 48.0096 88.6671 50.3824C82.5338 52.8884 71.1666 52.5738 65.072 50.1157C58.7991 47.5884 58.6285 41.6378 57.1398 35.0848C54.5034 23.5089 53.5497 11.6931 50.9521 0.106628C51.4717 0.106628 51.9834 0.106628 52.5029 0.106628H52.4952Z" fill="#9A1F28"/>
<path d="M105.873 0.10667C103.043 13.0262 99.5613 26.1217 95.4284 38.9452C91.1871 38.7692 80.4401 44.8797 77.2455 40.6728C75.9661 38.9878 81.4249 18.5982 81.5024 14.8711C70.8408 10.9627 59.9311 6.86235 52.4873 0.10667C70.2825 0.0800096 88.0777 0.117334 105.873 0.10667Z" fill="#B0282E"/>
<path d="M373.181 0.106658C361.318 5.16142 349.454 10.2162 337.591 15.271C330.798 13.6234 322.579 13.2661 315.539 14.2045C308.56 15.1377 303.388 17.4144 298.907 21.1202C298.247 21.6641 296.914 22.0746 295.813 23.5143L276.087 28.8356C276.575 27.8279 276.893 27.2574 276.474 26.175C276.389 25.9457 275.35 25.0232 274.924 24.5807C272.396 21.952 271.605 22.1813 267.961 20.8589C275.901 20.2991 276.412 25.0232 278.211 25.1139C297.286 21.712 311.995 14.2899 313.996 0.106658C333.722 0.122654 353.455 1.71363e-05 373.181 0.106658Z" fill="#0F1010"/>
<path d="M257.516 0.106628C263.401 8.89382 275.536 12.109 289.043 10.4828C294.626 9.81092 310.483 4.62819 311.677 0.106628C312.452 0.106628 313.228 0.106628 313.995 0.106628C312.003 14.2845 297.286 21.7067 278.211 25.1139C276.412 25.0232 275.901 20.299 267.961 20.8589C266.169 20.2084 256.446 17.2491 255.198 17.1371C252.205 14.5724 250.886 9.73094 249.785 8.09401C251.46 8.95247 255.748 8.63788 258.679 8.76052C257.004 5.87766 255.327 2.99659 253.647 0.117292C254.934 0.117292 256.229 0.117292 257.516 0.117292V0.106628Z" fill="#9A1F28"/>
<path d="M390.976 0.106664V12.3437C386.991 12.4716 373.197 15.4896 371.444 15.0044C365.148 8.64325 365.35 4.10569 359.643 9.14979C354.246 10.0082 361.17 14.8657 364.288 19.3926C364.303 19.9472 361.783 21.872 361.194 22.4532C357.198 23.4272 353.199 24.403 349.198 25.3805C350.067 20.0325 344.352 16.9132 337.591 15.271C349.454 10.2162 361.318 5.16143 373.181 0.106664C378.027 0.133324 388.092 -0.143941 390.976 0.106664Z" fill="#774028"/>
<path d="M60.6134 62.3528C51.0529 67.2636 47.9823 68.5859 38.949 74.5898C19.6961 87.3813 5.94838 100.493 -3.20898 117.95C-3.20898 109.792 -3.20898 101.634 -3.20898 93.4758C16.9512 79.202 31.7689 71.0813 57.9073 62.3528C60.9391 61.3397 67.1034 59.0203 60.6134 62.3528Z" fill="#E6CD8D"/>
<path d="M392.907 36.0178C392.923 40.806 392.899 45.5942 392.907 50.3823C371.723 56.9461 350.4 48.8147 352.68 33.0906C355.308 32.4454 352.703 35.8579 358.286 38.6785C366.513 42.8322 384.262 38.6412 392.907 36.0178Z" fill="#9A1F28"/>
<path d="M392.907 13.4047C392.93 15.5322 392.892 17.6597 392.907 19.7872C376.376 24.7993 381.408 26.8894 378.593 30.5632C374.096 36.4338 359.883 34.9675 356.929 28.9689C356.58 28.2544 357.759 26.9854 355.766 27.2414C356.789 26.0736 359.302 24.3141 361.178 22.4532C361.767 21.872 364.287 19.9471 364.272 19.3926C361.163 14.8657 354.231 10.0082 359.627 9.14978L368.715 19.5259C376.484 17.0039 384.153 14.0393 392.892 13.4101L392.907 13.4047Z" fill="#9A1F28"/>
<path d="M271.442 0.106618C274.784 2.39939 284.973 2.23943 288.462 0.106618C296.2 0.106618 303.939 0.101286 311.669 0.106618C310.475 4.62818 294.618 9.81091 289.036 10.4827C275.528 12.109 263.394 8.8938 257.508 0.106618C262.153 0.106618 266.79 0.106618 271.434 0.106618H271.442Z" fill="#B0282E"/>
<path d="M392.907 19.7925C392.938 25.1992 392.891 30.6112 392.907 36.0179C384.261 38.6413 366.513 42.8322 358.286 38.6786C352.703 35.8579 355.301 32.4454 352.68 33.0906C353.005 30.8352 354.122 29.1289 355.773 27.236C357.766 26.9854 356.58 28.2491 356.937 28.9636C359.891 34.9675 374.104 36.4285 378.601 30.5579C381.416 26.8841 376.383 24.7993 392.915 19.7819L392.907 19.7925Z" fill="#9A1F28"/>
<path d="M60.6134 60.2253C55.775 62.0222 50.2154 63.0246 45.3305 64.7469C28.1013 70.8307 10.562 80.9403 -3.20898 90.282C-3.20898 87.1787 -3.20898 84.0755 -3.20898 80.9723C5.2893 77.3145 27.4732 71.2093 33.3507 67.9354C42.2211 62.9926 40.3602 56.8501 41.8645 56.4982C48.6982 57.4722 55.532 58.448 62.3658 59.4255C62.8155 59.6335 61.3811 59.9427 60.6212 60.2253H60.6134Z" fill="#774028"/>
<path d="M40.1121 76.1841C38.2899 77.4797 36.8399 79.3619 35.0798 80.7056C11.159 99.0318 1.45887 111.024 -3.20898 136.303C-3.20898 130.187 -3.20898 124.066 -3.20898 117.95C5.94838 100.493 19.6961 87.3866 38.9568 74.5898C40.9495 74.0619 40.1198 75.1496 40.1198 76.1841H40.1121Z" fill="#0F1010"/>
<path d="M391.356 109.701C392.473 111.141 390.736 113.3 392.907 112.362C392.907 118.126 392.907 123.89 392.907 129.654C385.556 110.512 368.552 99.0265 350.354 84.6993V84.4327C365.101 90.25 381.664 104.465 390.775 114.489C391.628 114.452 391.333 110.266 391.356 109.701Z" fill="#0F1010"/>
<path d="M392.907 81.2388H391.356C391.271 80.4923 391.418 79.7245 391.356 78.978L383.23 75.123C384.494 73.1341 385.82 67.3169 385.549 65.1468C385.44 64.283 383.936 60.5346 383.23 59.9587L392.899 55.9703C392.915 64.3949 392.892 72.8196 392.899 81.2388H392.907Z" fill="#0F1010"/>
<path d="M235.852 0.106628C234.053 2.65534 250.445 2.16479 249.002 0.106628C250.553 0.106628 252.096 0.106628 253.647 0.106628C255.322 2.98948 256.999 5.87055 258.679 8.74985C255.74 8.62721 251.453 8.94714 249.785 8.08335C249.421 7.53948 249.258 7.00095 248.816 6.48907C230.85 8.158 235.805 10.9147 232.378 0.106628C233.541 0.106628 234.696 0.106628 235.859 0.106628H235.852Z" fill="#9A1F28"/>
<path d="M57.9073 62.3528C31.7689 71.0813 16.9512 79.202 -3.20898 93.4758C-3.20898 92.4094 -3.20898 91.3484 -3.20898 90.2819C10.562 80.9402 28.1013 70.8307 45.3382 64.7468C50.2232 63.0246 55.7827 62.0222 60.6212 60.2253C61.5594 61.4996 58.9541 60.9824 57.9151 62.3528H57.9073Z" fill="#201B14"/>
<path d="M390.976 12.3437C391.62 12.3223 392.264 12.3597 392.907 12.3437C392.907 12.7009 392.907 13.0528 392.907 13.4101C384.168 14.0393 376.5 17.0092 368.73 19.5259L359.643 9.14979C365.35 4.10569 365.14 8.64324 371.444 15.0044C373.204 15.4896 386.991 12.4716 390.976 12.3437Z" fill="#9A1F28"/>
<path d="M200.261 0.106628C193.877 1.70268 187.493 3.29874 181.109 4.89479L170.866 0.106628C180.667 0.106628 190.468 0.106628 200.269 0.106628H200.261Z" fill="#0F1010"/>
<path d="M392.907 81.2388C392.915 91.615 392.907 101.986 392.907 112.362C390.736 113.306 392.473 111.141 391.356 109.701C391.573 104.407 391.783 84.7793 391.356 81.2388H392.907Z" fill="#201B14"/>
<path d="M392.907 55.9703L383.238 59.9587C383.184 59.9107 382.726 60.1613 381.881 59.1589C381.486 59.4895 381.036 59.7134 380.524 59.9587L380.136 59.6921C381.68 58.6737 383.207 58.1778 382.843 57.0314L384.967 56.7648L392.899 53.3043C392.899 54.1894 392.899 55.0799 392.899 55.965L392.907 55.9703Z" fill="#4B6729"/>
<path d="M390.976 0.106654C391.604 0.159974 392.279 0.0693293 392.907 0.106654C392.938 4.18566 392.861 8.26466 392.907 12.3437C392.263 12.3597 391.612 12.3223 390.976 12.3437V0.106654Z" fill="#0F1010"/>
<path d="M288.462 0.106628C284.973 2.23944 274.784 2.3994 271.442 0.106628C277.118 0.106628 282.786 0.106628 288.462 0.106628Z" fill="#74181E"/>
<path d="M249.002 0.106628C250.445 2.16479 234.053 2.65534 235.852 0.106628C240.233 0.106628 244.621 0.106628 249.002 0.106628Z" fill="#74181E"/>
<path d="M183.242 41.3392C151.078 41.5525 132.562 43.0561 101.616 49.5879C81.0993 53.9175 92.7612 53.7362 97.3592 44.6664C100.655 38.172 104.159 17.9103 107.61 9.42169C136.121 19.5526 165.493 33.5811 195.423 40.8114V41.3446C191.352 41.2806 187.305 41.3179 183.234 41.3446L183.242 41.3392Z" fill="#774028"/>
<path d="M299.682 25.6417C304.249 33.3732 323.944 34.045 334.109 32.5574C328.503 39.3504 311.111 42.7629 332.558 46.9219C322.292 51.6621 302.093 51.0862 295.813 44.1279C291.726 39.601 292.184 32.4721 293.882 27.5026C294.215 26.5269 295.208 24.3034 295.813 23.5143C296.914 22.0746 298.247 21.664 298.906 21.1202C298.015 23.2743 298.635 23.8715 299.682 25.6417Z" fill="#B8825C"/>
<path d="M382.85 57.0314C383.215 58.1778 381.687 58.6736 380.144 59.6921C376.368 62.1821 342.863 81.6067 340.491 82.3052C340.064 82.4332 339.932 82.0653 339.521 82.0386C332.109 63.4618 357.061 49.7105 382.85 57.0314Z" fill="#58752C"/>
<path d="M276.467 26.1749C276.885 27.2573 276.568 27.8225 276.079 28.8356C274.955 31.1711 271.078 33.3679 271.822 34.4236C267.86 35.8579 263.828 38.284 262.735 38.6786C247.994 43.9893 233.122 38.1134 226.563 37.6122C225.772 37.0096 231.587 32.2428 231.975 32.0242C239.295 27.9612 266.487 24.6073 276.459 26.1696L276.467 26.1749Z" fill="#58752C"/>
<path d="M255.198 17.1318C256.446 17.2491 266.169 20.203 267.961 20.8535C271.605 22.1759 272.396 21.9466 274.924 24.5753C264.975 24.4793 251.646 25.839 242.233 28.0358C238.503 28.9049 231.432 31.7576 232.758 30.4299C234.037 27.4333 234.122 24.1221 235.464 21.1201C241.295 18.3955 247.684 16.4386 255.19 17.1318H255.198Z" fill="#58752C"/>
<path d="M337.591 15.2709C344.352 16.9132 350.067 20.0324 349.198 25.3805C348.679 28.5957 342.902 38.1827 339.917 41.3392C338.32 38.6999 339.739 34.5142 339.917 31.363L339.335 30.9631C338.343 31.2404 334.396 32.5201 334.109 32.5574C323.944 34.045 304.249 33.3732 299.682 25.6417C302.822 25.3538 299.845 22.9597 302.388 22.4479C297.053 32.6 334.117 35.8046 343.391 26.9694C344.383 26.0257 346.593 25.1085 345.321 22.048C344.593 20.2777 338.033 16.1454 337.583 18.4542C331.744 15.5162 324.882 15.1057 317.857 15.7935C317.058 14.6738 312.29 16.8865 315.539 14.1992C322.571 13.2554 330.798 13.6127 337.591 15.2656V15.2709Z" fill="#E1B27A"/>
<path d="M339.909 41.3392C337.598 43.7866 336.218 45.237 332.558 46.9272C311.103 42.7682 328.503 39.3557 334.109 32.5627C334.388 32.5201 338.335 31.2457 339.335 30.9684L339.917 31.3683C339.739 34.5196 338.32 38.7052 339.917 41.3446L339.909 41.3392Z" fill="#CA9969"/>
<path d="M235.464 21.1202C234.122 24.1221 234.037 27.4333 232.758 30.4299C232.719 30.5259 231.959 29.838 231.982 32.0242C231.595 32.2428 225.772 37.0096 226.57 37.6121C226.105 37.5748 222.205 38.1187 218.638 37.8787C219.072 33.3998 228.431 24.426 233.339 21.6534C235.2 20.603 235.371 21.1628 235.464 21.1202Z" fill="#384317"/>
<path d="M295.813 23.5142C295.208 24.3087 294.208 26.5322 293.882 27.5026C286.392 29.4648 278.917 31.8535 271.83 34.4182C271.085 33.3625 274.962 31.1657 276.087 28.8303L295.813 23.5089V23.5142Z" fill="#774028"/>
<path d="M380.532 59.9587C376.314 61.9475 348.78 78.8021 340.685 82.9664L341.46 84.1661C340.762 84.0275 339.157 82.7584 338.754 82.3052C339.103 82.3372 339.173 82.0173 339.529 82.0386C339.933 82.0653 340.072 82.4279 340.499 82.3052C342.863 81.6067 376.368 62.1875 380.152 59.6921L380.54 59.9587H380.532Z" fill="#384317"/>
<path d="M330.046 68.202C332.062 67.9781 337.102 69.5244 337.591 70.996C338.994 75.219 334.334 71.7745 328.697 68.6019C329.186 68.5859 329.976 68.2127 330.054 68.202H330.046Z" fill="#E6CD8D"/>
<path d="M383.238 59.9587C383.944 60.5345 385.456 64.283 385.556 65.1467C385.828 67.3169 384.494 73.1341 383.238 75.123C377.329 84.4327 362.783 84.1874 350.354 84.4327V84.6993C349.222 83.5956 345.36 84.4487 342.615 84.1661C342.243 84.1288 341.747 84.2248 341.452 84.1661L340.677 82.9664C348.764 78.7968 376.298 61.9475 380.524 59.9587C381.036 59.7187 381.486 59.4895 381.881 59.1589C382.718 60.156 383.176 59.9107 383.238 59.9587Z" fill="#58752C"/>
<path d="M315.538 14.2045C312.29 16.8919 317.058 14.6791 317.857 15.7988C312.39 16.3373 304.381 18.6568 302.38 22.4478C299.837 22.9544 302.814 25.3538 299.674 25.6417C298.627 23.8715 298.007 23.2743 298.899 21.1202C303.38 17.4144 308.552 15.1376 315.531 14.2045H315.538Z" fill="#E6CD8D"/>
<path d="M274.924 24.5807C275.35 25.0232 276.381 25.9457 276.474 26.175C266.503 24.6127 239.31 27.9665 231.99 32.0295C231.967 29.8434 232.719 30.5312 232.766 30.4353C231.44 31.7629 238.511 28.9103 242.241 28.0412C251.654 25.8497 264.983 24.49 274.931 24.5807H274.924Z" fill="#4B6729"/>
<path d="M391.356 81.2388C391.783 84.7793 391.573 104.412 391.356 109.701C391.333 110.266 391.628 114.452 390.775 114.489C381.664 104.46 365.101 90.2446 350.354 84.4327C362.775 84.1874 377.329 84.4327 383.238 75.123L391.364 78.978C391.426 79.7245 391.279 80.4923 391.364 81.2388H391.356Z" fill="#E6CD8D"/>
<path d="M337.591 18.4595C341.886 20.619 344.096 23.2637 343.391 26.9694C334.117 35.8046 297.046 32.6001 302.388 22.4479C304.381 18.6568 312.398 16.3374 317.865 15.7988C324.89 15.1057 331.752 15.5216 337.591 18.4595Z" fill="#B0282E"/>
<path d="M343.391 26.9747C344.096 23.2636 341.886 20.6243 337.591 18.4648C338.041 16.1507 344.593 20.2884 345.329 22.0586C346.593 25.1138 344.383 26.0363 343.398 26.9801L343.391 26.9747Z" fill="#CA9969"/>
<path d="M188.628 62.6347C184.037 64.4695 190.719 63.2081 192.249 64.0655C170.653 63.2237 145.316 64.7093 124.459 67.0548C123.595 66.7473 120.883 67.6699 119.195 66.6639C145.514 63.4739 161.266 62.739 188.634 62.6321L188.628 62.6347Z" fill="#201B14"/>
<path d="M196.2 74.9854C196.411 79.2361 196.061 83.479 195.87 87.727L192.908 88.8972C192.961 88.0789 193.205 87.2293 193.238 86.4266C193.35 83.6744 193.225 80.9796 193.238 78.2353C193.238 78.191 193.238 78.1493 193.238 78.105C197.948 78.78 193.931 75.7542 196.2 74.9854Z" fill="#201B14"/>
<path d="M30.0122 130.114C30.0056 124.133 30.0122 118.152 30.0122 112.17C38.7326 143.416 131.51 154.372 199.327 152.605C200.046 152.337 199.142 148.91 199.162 148.316C199.208 146.914 199.149 145.548 199.162 144.156C199.175 142.936 199.162 141.732 199.162 140.515C199.162 140.414 199.492 140.403 199.492 140.124C199.492 138.688 199.215 137.26 199.162 135.835C199.136 135.178 199.525 134.446 199.492 133.755C200.778 133.914 201.748 133.95 202.124 134.469C202.447 140.461 204.644 146.413 204.096 152.413C204.703 152.618 204.723 152.345 204.756 152.347C207.196 152.491 220.659 152.311 224.334 152.217C265.409 151.185 310.838 144.904 336.715 131.675C348.714 125.543 357.408 118.253 357.118 110.351C370.429 139.455 292.619 156.176 230.917 159.89C164.175 163.903 62.8817 156.494 30.0122 130.114Z" fill="#0F1010"/>
<path d="M85.9557 73.5546C82.1034 74.4902 79.2077 75.4206 75.7512 76.5439C72.7103 77.5343 69.6034 78.5455 66.8659 79.6635C66.8659 79.1579 67.5717 78.6263 65.8765 78.8843C73.5612 75.9497 76.1733 75.306 84.3066 72.9031C84.5045 73.3253 84.986 73.5286 85.9491 73.552L85.9557 73.5546Z" fill="#201B14"/>
<path d="M202.124 120.104C202.223 125.095 201.906 129.254 202.453 134.406C202.526 135.105 202.711 135.788 202.783 136.486C203.06 139.173 203.423 141.884 204.426 144.547C204.109 145.498 204.709 146.473 204.756 147.409C204.835 149.032 203.74 150.721 204.756 152.35C204.723 152.35 204.703 152.618 204.096 152.415C204.637 146.416 202.447 140.466 202.124 134.472C201.748 133.953 200.778 133.916 199.492 133.757C199.373 131.482 199.215 129.207 199.162 126.932L198.502 126.218C198.707 126.218 199.162 125.913 199.162 125.892C199.195 124.008 198.377 121.998 198.172 120.106C198.278 120.117 198.397 120.098 198.502 120.106C199.538 120.171 201.002 120.059 202.124 120.106V120.104Z" fill="#261713"/>
<path d="M177.11 98.9102C181.253 99.3116 188.443 101.644 190.93 103.07C191.24 103.247 191.794 103.792 192.249 103.979C191.26 104.446 188.727 105.267 187.968 105.671C185.415 105.796 182.968 106.403 180.725 106.841C175.666 106.716 170.501 107.177 165.422 106.971C163.489 106.893 153.139 105.741 151.108 105.41C159.023 103.406 166.18 102.244 175.791 102.356C171.081 101.829 164.004 101.209 161.312 99.4289C162.48 99.2933 164.063 98.9832 165.263 98.9076C166.187 98.8503 166.51 98.7799 166.583 98.7773C168.542 98.6861 175.389 98.7408 177.11 98.9076V98.9102Z" fill="#58752C"/>
<path d="M161.312 99.4288C164.003 101.206 171.081 101.827 175.791 102.356C166.187 102.246 159.03 103.406 151.108 105.41C150.191 105.261 149.854 105.29 149.788 105.28C149.61 105.246 149.32 105.189 149.129 105.149C148.265 104.972 146.239 104.287 145.837 103.979C145.454 103.685 145.131 103.607 145.507 103.265C145.705 103.083 151.675 100.917 152.42 100.729C153.469 100.463 158.502 99.6243 159.986 99.4288C160.316 99.3845 160.949 99.4705 161.305 99.4288H161.312Z" fill="#384317"/>
<path d="M195.871 96.7002C194.71 97.6436 193.377 99.1917 192.909 100.211C192.124 96.4395 192.678 92.671 192.909 88.8998L195.871 87.7297C195.818 88.8477 196.313 90.0309 196.201 91.175C196.075 92.4495 194.479 95.6603 195.871 96.7002Z" fill="#AA7453"/>
<path d="M198.502 126.213L199.162 126.927C199.215 129.202 199.373 131.477 199.492 133.752C199.525 134.445 199.136 135.178 199.162 135.832C186.985 133.09 168.918 124.873 185.831 120.229C187.295 119.827 192.262 119.384 189.947 119.059C190.019 119.051 190.903 118.821 191.266 118.798C191.187 119.285 197.559 125.05 198.509 126.21L198.502 126.213Z" fill="#58752C"/>
<path d="M189.947 119.061C192.269 119.387 187.295 119.83 185.831 120.231C168.911 124.876 186.979 133.09 199.162 135.835C199.215 137.26 199.485 138.688 199.492 140.124C198.713 140.153 198.245 139.874 198.173 139.864C195.554 138.74 191.484 138.071 188.463 137.002C184.109 135.462 179.881 132.926 177.44 130.826C175.996 129.582 175.831 127.904 174.479 129.069C174.063 128.042 173.614 127.13 173.819 126.08C173.911 125.616 174.168 125.225 174.479 124.779C176.405 121.967 183.232 119.796 189.947 119.059V119.061Z" fill="#384317"/>
<path d="M198.173 139.866C197.308 139.741 194.677 139.64 193.727 139.475C187.83 138.462 180.613 135.78 177.763 133.494C176.325 132.34 174.993 130.364 174.472 129.074C175.824 127.909 175.989 129.588 177.434 130.831C179.874 132.931 184.103 135.467 188.456 137.007C191.477 138.076 195.541 138.746 198.166 139.869L198.173 139.866Z" fill="#4B6729"/>
<path d="M192.249 103.979C191.794 103.792 191.24 103.247 190.93 103.07L192.249 102.29C192.242 102.353 192.698 103.343 192.909 103.526L192.249 103.982V103.979Z" fill="#9A4134"/>
<path d="M198.502 104.761C198.476 104.722 197.809 104.946 197.183 104.175C196.886 99.6817 198.885 96.536 205.079 92.7988C206.846 93.2001 209.927 95.4623 210.343 96.2441C212.493 100.31 205.283 102.4 198.496 104.761H198.502Z" fill="#58752C"/>
<path d="M205.086 92.7987C198.892 96.5359 196.893 99.6816 197.19 104.175C197.81 104.943 198.483 104.722 198.509 104.761C198.786 105.199 198.925 105.634 199.169 106.062C199.228 106.161 199.36 106.247 199.499 106.583C188.536 100.946 187.685 113.729 189.954 116.335C189.505 116.88 186.497 114.576 186.003 114.06C183.298 111.232 183.278 108.173 187.975 105.673C188.727 105.272 191.267 104.451 192.256 103.982L192.916 103.526C192.705 103.346 192.249 102.353 192.256 102.29C192.401 101.342 192.507 101.107 192.916 100.211C193.384 99.1916 194.716 97.6436 195.877 96.7001C196.649 96.072 197.79 95.3084 198.839 94.7507C199.268 94.5213 203.292 92.7309 203.608 92.671C204.624 92.4755 204.723 92.7179 205.092 92.8013L205.086 92.7987Z" fill="#384317"/>
<path d="M199.492 106.58C199.802 107.331 199.762 107.797 199.822 108.53C199.874 109.176 200.56 109.71 199.822 110.221C200.224 111.443 198.872 111.907 198.832 112.17C195.868 113.557 192.907 114.943 189.947 116.33C187.678 113.724 188.522 100.943 199.492 106.578V106.58Z" fill="#58752C"/>
<path d="M221.536 101.769C222.684 101.759 224.03 101.733 225.158 101.769C227.829 101.855 235.217 102.718 237.664 103.2C240.653 103.789 244.736 105.264 247.209 106.189C249.511 107.055 251.715 108.055 253.792 108.986C252.856 109.567 239.755 107.401 237.5 107.49C231.906 106.312 225.936 106.539 219.729 105.54C215.639 105.733 211.998 104.79 208.377 105.215C215.474 106.096 223.08 106.262 230.263 106.971C230.534 106.997 230.323 107.203 230.593 107.232C233.938 107.563 250.118 109.202 251.325 109.442C251.906 109.557 251.767 109.656 251.49 109.833C245.356 111.178 241.998 111.787 235.039 112.434C221.101 110.74 212.79 108.981 204.102 104.243C205.606 103.687 207.15 103.304 208.383 102.812C213.456 102.246 216.061 101.824 221.55 101.772L221.536 101.769Z" fill="#58752C"/>
<path d="M235.033 112.431C230.56 112.845 224.379 113.406 219.894 113.21C218.726 113.161 213.251 112.428 211.998 112.17C211.411 112.051 210.58 111.813 210.026 111.649C205.606 110.357 202.618 107.862 200.481 105.929C200.679 105.848 199.907 105.785 204.102 104.237C212.783 108.975 221.101 110.734 235.039 112.428L235.033 112.431Z" fill="#384317"/>
<path d="M247.203 106.189L255.099 109.116C255.125 109.52 252.553 109.596 251.477 109.83C251.754 109.656 251.893 109.557 251.313 109.439C250.105 109.199 233.925 107.56 230.58 107.229C230.31 107.203 230.521 106.997 230.25 106.969C223.074 106.262 215.468 106.096 208.364 105.212C211.985 104.785 215.626 105.728 219.716 105.538C225.923 106.536 231.893 106.312 237.487 107.487C239.736 107.399 252.836 109.564 253.78 108.983C251.708 108.053 249.499 107.052 247.196 106.187L247.203 106.189Z" fill="#4B6729"/>
<path d="M199.162 148.316C199.142 148.912 200.046 152.337 199.327 152.605C131.51 154.375 38.7326 143.416 30.0122 112.17C30.0122 111.131 30.0122 110.091 30.0122 109.051C33.9832 96.6949 42.2352 90.8336 62.5915 81.8762C60.3224 84.253 56.0413 86.8305 53.3764 89.3533C50.9094 91.6884 44.3065 99.52 43.1719 101.834C38.4819 111.409 44.2405 119.194 59.6232 126.669C91.1602 141.99 151.273 147.959 199.155 148.318L199.162 148.316Z" fill="#AA7453"/>
<path d="M192.909 64.1932C193.232 64.5555 192.836 70.0284 192.909 71.2143C168.278 70.8729 143.944 73.1298 120.672 76.1556C100.995 78.7149 93.2446 80.031 78.7129 86.0382C68.9833 90.0596 62.8685 93.6665 58.6402 99.0405C53.693 105.329 53.8843 112.856 62.9212 118.608C71.3316 123.961 92.176 130.487 106.193 133.494C125.995 137.745 175.626 143.351 199.162 144.156C199.149 145.55 199.208 146.916 199.162 148.316C151.279 147.959 91.1667 141.988 59.6297 126.666C44.247 119.191 38.4818 111.407 43.1784 101.832C44.313 99.5174 50.9093 91.6858 53.3829 89.3507C56.0479 86.8279 60.3289 84.2504 62.598 81.8736C64.0888 81.2168 65.3223 80.2968 66.879 79.6635C69.6165 78.5455 72.7234 77.5316 75.7643 76.5439C75.6851 77.5499 82.1891 75.2695 87.1166 74.2036C116.259 67.8966 149.353 64.7796 182.552 65.1028C183.812 65.1158 191.715 65.6058 192.097 65.4937C192.592 65.3477 191.814 64.1254 192.922 64.1932H192.909Z" fill="#E1B27A"/>
<path d="M192.249 64.0629C192.302 64.0942 192.704 63.9639 192.909 64.1932C191.801 64.1255 192.579 65.3478 192.084 65.4937C191.702 65.6084 183.799 65.1158 182.539 65.1028C149.347 64.7796 116.246 67.8966 87.1035 74.2036C82.176 75.2695 75.672 77.5499 75.7512 76.5439C79.2077 75.4206 82.1035 74.4902 85.9557 73.5546C97.1365 70.8364 111.846 68.4726 124.459 67.0548C145.316 64.7066 170.659 63.2211 192.249 64.0655V64.0629Z" fill="#E6CD8D"/>
<path d="M193.238 77.1955C193.238 77.4978 193.238 77.8027 193.238 78.1051C193.238 78.1494 193.238 78.1911 193.238 78.2354C192.407 78.3448 191.002 78.6185 190.277 78.6263C187.777 78.655 184.525 77.9383 183.694 76.9349C187.579 75.8299 188.872 78.3135 193.238 77.1955Z" fill="#E8A560"/>
<path d="M60.2893 105.019C60.6653 105.619 61.6548 106.966 62.5915 107.359C61.8857 107.946 61.1403 108.368 60.949 109.051C59.6033 113.823 70.1575 120.302 79.8739 123.093C87.7103 125.259 109.01 133.028 114.425 134.273C127.282 137.237 138.66 134.847 153.918 137.263C157.374 137.81 163.186 139.444 166.095 139.864C176.128 141.31 188.661 140.031 199.169 140.513C199.169 141.73 199.182 142.934 199.169 144.154C175.639 143.348 126.009 137.742 106.2 133.492C92.1826 130.484 71.3316 123.958 62.9279 118.605C53.8909 112.853 53.6996 105.327 58.6469 99.0379C58.7062 101.058 59.0492 103.054 60.2893 105.019Z" fill="#CC693E"/>
<path d="M60.2895 105.019C59.0493 103.054 58.7063 101.058 58.647 99.0379C62.8752 93.6639 68.9966 90.057 78.7196 86.0356C80.4149 86.6768 73.779 89.8693 71.1536 91.9517C68.6998 93.8959 63.8449 98.8685 62.5982 100.922C61.4966 102.733 61.6483 105.118 60.2961 105.019H60.2895Z" fill="#9A1F28"/>
<path d="M136.636 94.6178C135.112 94.8446 133.456 94.9983 131.866 95.1391L131.042 95.53C124.887 95.7463 120.224 96.0538 113.931 95.7906C104.775 95.4049 97.2686 93.5154 91.8794 90.5887C92.0245 90.5574 93.1921 90.0779 94.5113 89.8094C109.755 89.6348 124.109 91.6676 137.783 94.0992L136.629 94.6204L136.636 94.6178Z" fill="#58752C"/>
<path d="M126.431 87.9877C133.192 89.0484 138.496 91.579 143.212 93.7082C143.093 93.7082 141.471 93.9037 140.91 93.9688C140.646 93.2886 139.848 93.7213 139.756 93.7082C132.869 92.8091 126.035 91.3157 119.023 90.5886C112.156 89.8745 104.584 89.9996 99.4453 89.0275C102.565 88.462 104.036 88.1336 107.506 87.727C107.79 87.6932 107.638 87.4716 107.671 87.4664C113.792 86.7992 120.554 87.0651 126.431 87.9877Z" fill="#58752C"/>
<path d="M99.4453 89.0275C104.584 89.997 112.163 89.8745 119.023 90.5886C126.035 91.3184 132.869 92.8091 139.755 93.7082C139.841 93.7187 140.639 93.2886 140.91 93.9688C139.459 94.1356 138.047 94.4067 136.629 94.6178L137.783 94.0966C124.109 91.665 109.755 89.6322 94.5112 89.8068C96.0944 89.2308 98.9769 89.1109 99.4453 89.0275Z" fill="#4B6729"/>
<path d="M190.276 78.6262V78.7566C188.126 78.9312 186.51 78.2249 185.672 78.6914L189.953 80.706C189.432 80.878 188.924 80.9953 188.311 81.0969C187.42 80.3333 185.962 79.6661 185.019 78.8869C184.676 78.6054 184.201 77.761 183.7 78.1076C183.311 77.834 183.06 77.5968 182.71 77.3284C183.291 77.2841 183.245 77.0677 183.7 76.9374C184.531 77.9408 187.783 78.6549 190.283 78.6288L190.276 78.6262Z" fill="#C53836"/>
<path d="M192.909 71.2142C193.028 73.2157 193.225 75.1912 193.239 77.1954C188.878 78.3134 187.579 75.8297 183.694 76.9348C183.239 77.0625 183.285 77.2814 182.704 77.3257C181.59 76.4578 180.053 75.6551 179.907 74.5944C179.604 74.5006 177.104 75.6291 176.781 75.7646C165.389 77.2632 162.183 76.4344 158.845 76.5438C151.847 76.7758 142.269 80.3228 144.037 81.8735C144.815 82.5563 168.219 87.5002 168.225 92.796C162.522 92.8168 156.818 92.8386 151.114 92.8612C154.063 93.7212 157.737 93.8958 161.154 94.3571C163.436 94.6646 165.877 95.5038 167.243 95.006C166.273 95.6628 174.591 96.9372 177.117 98.9075C175.389 98.7407 168.542 98.686 166.589 98.7772C164.67 96.906 162.421 96.7991 165.27 98.9075C164.07 98.9805 162.487 99.2906 161.319 99.4287C160.969 99.4704 160.336 99.3844 160 99.4287C157.605 96.6766 151.695 94.49 144.696 93.5779C143.727 93.5779 144.881 93.7811 144.202 93.8385C143.654 93.901 143.515 93.703 143.212 93.7082C138.496 91.5789 133.186 89.0483 126.431 87.9876C126.101 86.721 123.99 85.5664 123.799 84.2816C123.456 82.009 128.687 80.5912 118.37 80.4453C105.402 80.2629 98.4164 85.6551 107.678 87.4664C107.645 87.469 107.796 87.6931 107.513 87.727C104.036 88.1335 102.572 88.4619 99.452 89.0275C98.9836 89.1135 96.0944 89.2307 94.5179 89.8067C93.1987 90.0751 92.0311 90.5547 91.886 90.586C85.039 92.0975 76.1669 93.2286 78.3965 97.1509C74.6762 97.7947 72.9809 100.375 75.4347 101.506C75.3622 102.074 72.2421 102.653 70.8305 103.067C71.1735 101.735 72.783 100.568 74.1221 99.361C70.692 99.8249 68.8912 102.254 69.188 103.716C66.998 104.928 64.2407 105.991 62.6049 107.357C61.6682 106.963 60.6787 105.616 60.3027 105.016C61.655 105.118 61.5033 102.733 62.6049 100.919C63.8516 98.8658 68.7065 93.8906 71.1603 91.949C73.7922 89.8666 80.4282 86.6741 78.7263 86.033C93.258 80.0257 101.009 78.7096 120.686 76.1503C143.951 73.1245 168.291 70.8676 192.922 71.209L192.909 71.2142Z" fill="#B0282E"/>
<path d="M168.225 92.7988C168.225 93.5441 167.566 94.2817 167.236 95.0088C165.87 95.504 163.43 94.6648 161.147 94.3599C157.73 93.9012 154.063 93.724 151.108 92.8639C156.811 92.8431 162.515 92.8214 168.219 92.7988H168.225Z" fill="#D55644"/>
<path d="M133.839 81.6155C137.143 81.5738 140.369 83.0046 139.597 84.2816C138.39 86.2728 136.477 83.5754 131.866 83.9559C130.87 84.0393 128.977 85.2068 128.41 84.021C127.862 82.8769 131.226 81.6494 133.839 81.6155Z" fill="#D55644"/>
<path d="M143.377 85.908C149.755 85.4519 149.017 89.2335 142.717 88.6392C139.439 88.3291 140.244 86.1321 143.377 85.908Z" fill="#D8AB5E"/>
<path d="M132.519 84.0862C138.337 83.7969 138.087 87.4847 131.86 86.5569C128.377 86.0383 129.597 84.2322 132.519 84.0862Z" fill="#D8AB5E"/>
<path d="M88.0931 87.4664C93.8055 87.1615 92.572 90.255 87.4334 90.0674C83.3767 89.9188 84.8345 87.641 88.0931 87.4664Z" fill="#C53836"/>
<path d="M152.592 88.3787C157.269 88.152 157.335 91.0292 152.262 90.5888C149.267 90.3281 149.643 88.5221 152.592 88.3787Z" fill="#C53836"/>
<path d="M79.2076 89.2882C83.5018 88.8243 83.0269 91.3862 79.5374 91.2376C77.2947 91.1438 76.9649 89.5306 79.2076 89.2882Z" fill="#B0282E"/>
<path d="M70.8169 103.07C70.586 103.685 69.2404 103.682 69.1744 103.719C68.8776 102.254 70.685 99.8251 74.1085 99.3638C72.7694 100.57 71.1599 101.738 70.8169 103.07Z" fill="#E8A560"/>
<path d="M145.026 91.3679C148.192 91.1802 149.637 92.6918 147.988 92.929C145.751 93.2469 141.464 91.579 145.026 91.3679Z" fill="#C53836"/>
<path d="M132.189 78.7565C135.613 78.3343 134.907 80.3906 132.849 80.448C130.679 80.5079 130.402 78.9781 132.189 78.7565Z" fill="#C53836"/>
<path d="M137.295 79.9267C141.833 79.4602 136.939 79.2126 136.965 78.3656C140.963 77.1042 142.183 80.732 137.295 79.9267Z" fill="#E1B27A"/>
<path d="M168.39 75.246C170.039 75.0349 171.787 75.5327 171.187 75.9601C170.046 76.7706 164.557 75.7386 168.39 75.246Z" fill="#C53836"/>
<path d="M137.295 79.9268C135.718 79.6662 135.283 78.8948 136.965 78.3657C136.939 79.2127 141.833 79.4603 137.295 79.9268Z" fill="#E1B27A"/>
<path d="M166.583 98.7799C166.51 98.7825 166.187 98.8529 165.263 98.9102C162.414 96.8018 164.663 96.9086 166.583 98.7799Z" fill="#F8BF8A"/>
<path d="M193.238 86.4266C190.982 87.2475 189.452 88.2718 186.985 89.0276C190.864 85.6864 192.348 84.5527 188.304 81.0969C188.924 80.9953 189.426 80.878 189.947 80.706C191.985 80.0362 192.288 79.5515 190.276 78.7566V78.6263C191.002 78.6185 192.407 78.3448 193.238 78.2354C193.225 80.9797 193.35 83.6745 193.238 86.4266Z" fill="#B0282E"/>
<path d="M187.968 105.671C183.265 108.17 183.291 111.227 185.996 114.057C186.49 114.573 189.498 116.877 189.947 116.332C192.911 114.946 195.873 113.559 198.832 112.173C198.469 114.823 198.423 117.453 198.502 120.104C198.397 120.096 198.278 120.114 198.173 120.104C195.099 119.825 195.712 117.333 192.744 117.894C192.13 118.008 191.312 118.511 191.26 118.803C190.897 118.824 190.013 119.056 189.94 119.064C183.225 119.801 176.398 121.972 174.472 124.784C173.186 123.015 166.154 122.441 163.284 123.81C158.713 125.988 166.174 129.335 173.812 126.085C173.608 127.138 174.056 128.05 174.472 129.074C174.993 130.364 176.325 132.342 177.763 133.494C165.613 135.952 148.265 134.873 148.97 128.423C137.466 131.034 114.755 131.839 108.166 126.343C121.569 131.321 142.394 128.152 154.564 124.002C161.273 121.717 181.616 113.208 168.878 110.609C169.129 110.093 169.432 109.575 169.538 109.048C173.351 108.376 176.992 107.568 180.725 106.838C182.968 106.4 185.415 105.793 187.968 105.668V105.671Z" fill="#E6CD8D"/>
<path d="M125.448 126.994C125.408 126.95 125.665 126.22 125.778 126.085C125.876 126.095 126.002 126.08 126.107 126.085C132.209 126.434 139.986 125.027 139.927 125.889C139.907 126.22 127.367 129.145 125.448 126.994Z" fill="#D55644"/>
<path d="M62.9214 109.181C65.0586 109.418 71.0612 110.255 72.4663 110.351C74.0824 111.214 78.3634 111.897 78.7196 110.351C79.3726 110.344 80.0455 110.37 80.6919 110.351C82.6312 110.297 84.3727 110.187 86.2856 110.091C75.9227 112.601 73.4029 115.72 81.3515 119.582C87.2618 122.457 94.2738 124.487 103.726 122.572C103.984 122.52 104.795 122.517 105.699 122.181C107.196 122.134 108.278 121.514 108.66 121.402C120.58 117.912 127.836 114.266 146.504 112.819C136.418 115.389 134.228 117.31 130.705 118.67C130.679 118.681 130.224 118.78 130.046 118.801C129.795 117.5 123.733 116.416 128.726 119.84C126.668 121.998 125.488 123.724 125.435 126.082C123.06 125.595 124.874 125.042 123.298 124.391C122.48 124.055 118.238 123.979 115.89 123.416C116.728 125.225 120.527 126.968 125.435 126.992C127.354 129.142 139.894 126.218 139.914 125.887C139.973 125.024 132.196 126.432 126.094 126.082C127.275 125.97 128.529 125.77 129.716 125.691C130.639 125.631 131.945 125.754 132.843 125.691C133.106 125.673 132.902 125.452 133.172 125.431C133.924 125.373 135.098 125.493 135.804 125.431C157.19 123.58 164.94 118.735 168.878 110.609C181.616 113.208 161.273 121.714 154.564 124.003C142.394 128.152 121.569 131.321 108.166 126.343C114.755 131.839 137.467 131.034 148.971 128.423C148.265 134.873 165.613 135.949 177.764 133.494C180.607 135.78 187.83 138.462 193.727 139.475C194.67 139.637 197.309 139.741 198.173 139.866C198.239 139.877 198.714 140.156 199.492 140.127C199.492 140.403 199.162 140.414 199.162 140.518C188.654 140.036 176.128 141.315 166.088 139.869C163.179 139.449 157.368 137.818 153.911 137.268C138.654 134.849 127.275 137.239 114.419 134.279C109.003 133.03 87.6972 125.264 79.8674 123.098C70.151 120.307 59.5968 113.828 60.9425 109.056C61.6549 109.056 62.1892 109.163 62.9148 109.186L62.9214 109.181Z" fill="#9A1F28"/>
<path d="M134.491 131.415C140.566 130.841 141.866 134.37 136.464 134.664C130.23 135.006 130.448 131.795 134.491 131.415Z" fill="#D8AB5E"/>
<path d="M119.03 120.492C125.817 119.979 125.705 124.175 118.7 123.612C114.491 123.275 115.527 120.758 119.03 120.492Z" fill="#E1B27A"/>
<path d="M125.448 126.082C125.527 126.098 125.665 126.069 125.778 126.082C125.665 126.218 125.408 126.95 125.448 126.992C120.54 126.968 116.741 125.225 115.903 123.416C118.245 123.979 122.493 124.055 123.311 124.391C124.894 125.042 123.073 125.595 125.448 126.082Z" fill="#D55644"/>
<path d="M173.324 134.404C176.048 134.36 175.976 135.631 173.984 135.835C170.303 136.213 169.887 134.461 173.324 134.404Z" fill="#C53836"/>
<path d="M130.052 118.803C130.171 119.434 128.785 119.788 128.733 119.843C123.739 116.419 129.801 117.503 130.052 118.803Z" fill="#D55644"/>
<path d="M78.7126 110.351C78.3563 111.897 74.0753 111.214 72.4592 110.351C73.9764 110.456 76.14 110.38 77.5582 110.612C77.9606 110.435 78.0595 110.362 78.7126 110.351Z" fill="#D24E51"/>
<path d="M160 99.4288C158.515 99.6242 153.482 100.463 152.434 100.729C149.597 100.974 148.463 100.456 146.51 99.95C146.668 97.9068 154.775 100.985 152.434 97.4142C151.998 96.7548 149.155 95.1807 147.17 95.3344C152.922 97.9849 137.869 97.4715 141.906 94.0991C142.011 94.0783 143.99 93.8567 144.208 93.8385C144.887 93.7812 143.733 93.5805 144.703 93.5779C151.701 94.49 157.612 96.6766 160.006 99.4288H160Z" fill="#D55644"/>
<path d="M146.503 99.9501C143.561 99.1865 136.312 96.1034 138.937 94.683C139.458 94.3989 141.068 94.253 141.899 94.0966C137.862 97.469 152.915 97.9824 147.163 95.332C149.148 95.1782 151.991 96.7523 152.427 97.4117C154.768 100.982 146.662 97.9043 146.503 99.9475V99.9501Z" fill="#B0282E"/>
<path d="M131.041 95.5299C129.953 98.1517 118.37 97.8051 113.93 95.7905C120.223 96.0564 124.894 95.7462 131.041 95.5299Z" fill="#B0282E"/>
<path d="M76.4105 101.639C81.1203 102.872 91.2721 103.336 96.813 103.523C80.7641 103.794 67.4065 109.142 65.7113 109.309C65.5728 109.322 63.6796 109.202 62.9144 109.179C62.1888 109.155 61.6545 109.048 60.9421 109.048C61.1334 108.365 61.8854 107.946 62.5846 107.357C64.2205 105.991 66.9778 104.928 69.1678 103.716C69.2337 103.68 70.5794 103.682 70.8103 103.067C72.2219 102.653 75.3419 102.074 75.4145 101.506C75.7047 101.642 76.3578 101.626 76.4039 101.636L76.4105 101.639Z" fill="#384317"/>
<path d="M107.018 98.6497C113.759 99.6453 120.078 100.917 126.107 102.421C126.49 102.58 126.312 102.794 125.943 102.812C125.065 102.851 115.784 102.496 110.804 103.072C117.282 103.297 123.937 103.523 130.382 103.463C131.14 103.687 133.126 103.914 132.519 104.243C126.721 105.374 121.008 106.492 114.913 107.362C110.144 107.221 83.7524 109.554 81.5096 109.963C81.3051 110 80.7642 110.239 80.6851 110.354C80.032 110.372 79.3658 110.346 78.7128 110.354C78.0663 110.362 77.9608 110.437 77.5584 110.615C76.1402 110.383 73.97 110.458 72.4594 110.354C71.061 110.258 65.0584 109.421 62.9146 109.184C63.6797 109.207 65.5729 109.327 65.7114 109.314C67.4067 109.147 80.7576 103.8 96.8131 103.528C91.2656 103.341 81.1204 102.874 76.4107 101.644C88.5347 98.0685 100.362 98.7435 101.589 98.5246C101.892 98.4699 101.701 98.2796 101.754 98.264C103.475 98.4751 105.263 98.5064 107.018 98.6549V98.6497Z" fill="#58752C"/>
<path d="M114.914 107.359C105.659 108.683 96.0416 109.596 86.2856 110.091C84.3727 110.187 82.6312 110.297 80.6919 110.351C80.7711 110.237 81.3119 109.997 81.5164 109.96C83.7526 109.551 110.151 107.219 114.92 107.359H114.914Z" fill="#384317"/>
<path d="M130.382 103.461C123.937 103.521 117.275 103.294 110.804 103.07C115.778 102.494 125.059 102.851 125.943 102.809C126.312 102.793 126.49 102.577 126.107 102.418C127.565 102.78 128.964 103.041 130.388 103.458L130.382 103.461Z" fill="#58752C"/>
<path d="M182.704 77.3258C183.054 77.5942 183.304 77.8314 183.694 78.105C183.984 78.3083 184.241 78.7905 185.013 78.8843C185.956 79.6635 187.407 80.3307 188.305 81.0943C192.355 84.5501 190.87 85.6838 186.985 89.0249C186.194 89.2673 185.31 89.6687 184.353 89.8042C173.45 87.9694 171.543 81.4905 175.138 77.3883C175.435 77.0495 177.876 75.968 176.781 75.7621C177.104 75.6266 179.604 74.4981 179.907 74.5919C180.052 75.65 181.589 76.4553 182.704 77.3232V77.3258Z" fill="#58752C"/>
<path d="M184.353 89.8068C182.071 90.13 181.292 90.0257 179.089 89.8068C180.006 89.3768 176.517 88.6914 174.485 87.6619C171.945 86.3745 169.749 84.5085 169.551 82.8509C169.439 81.957 171.226 81.3993 169.221 80.8363C170.435 79.2127 173.858 77.0105 176.787 75.7647C177.882 75.9706 175.442 77.0522 175.145 77.391C171.55 81.4931 173.456 87.9747 184.36 89.8068H184.353Z" fill="#384317"/>
<path d="M179.083 89.8068C168.502 88.7539 166.504 84.4693 169.208 80.8363C171.213 81.3992 169.426 81.957 169.538 82.8509C169.742 84.5084 171.932 86.3744 174.472 87.6619C176.504 88.6913 179.993 89.3794 179.076 89.8068H179.083Z" fill="#4B6729"/>
<path d="M185.006 78.8869C184.241 78.7931 183.977 78.3109 183.687 78.1076C184.188 77.7636 184.663 78.6054 185.006 78.8869Z" fill="#845432"/>
<path d="M126.431 87.9877C120.554 87.0651 113.792 86.7993 107.671 87.4665C98.4096 85.6552 105.395 80.263 118.364 80.4454C128.68 80.5914 123.449 82.0091 123.792 84.2817C123.99 85.564 126.094 86.7211 126.424 87.9877H126.431Z" fill="#E1B27A"/>
<path d="M118.7 84.2165C122.823 84.0758 122.743 87.0234 117.71 86.5569C114.663 86.2754 115.83 84.3155 118.7 84.2165Z" fill="#B0282E"/>
<path d="M190.276 78.7566C192.288 79.5515 191.991 80.0362 189.947 80.706L185.666 78.6915C186.503 78.2249 188.119 78.9312 190.27 78.7566H190.276Z" fill="#E26B59"/>
<path d="M169.544 109.051C169.445 109.575 169.135 110.096 168.885 110.612C164.953 118.741 157.196 123.583 135.811 125.433C135.105 125.496 133.931 125.376 133.179 125.433C132.908 125.454 133.119 125.676 132.849 125.694C131.952 125.757 130.646 125.634 129.722 125.694C133.067 123.242 137.031 120.87 141.569 118.738C146.233 116.546 152.308 114.469 157.202 112.692C148.588 114.907 137.737 115.751 130.877 118.934L130.712 118.673C134.234 117.312 136.417 115.392 146.51 112.822C147.499 112.569 148.515 112.431 149.472 112.173C149.689 112.17 149.914 112.181 150.131 112.173C150.962 112.139 166.51 110.693 164.94 109.833L166.912 109.312C168.245 109.08 169.419 109.074 169.544 109.051Z" fill="#58752C"/>
<path d="M129.722 125.694C128.535 125.769 127.282 125.973 126.101 126.085C125.995 126.08 125.87 126.095 125.771 126.085C125.659 126.072 125.521 126.1 125.441 126.085C125.488 123.726 126.675 122.001 128.733 119.843C128.786 119.788 130.171 119.431 130.052 118.803C130.224 118.782 130.685 118.683 130.712 118.673L130.877 118.933C137.737 115.751 148.588 114.907 157.203 112.692C152.308 114.469 146.233 116.546 141.569 118.738C137.031 120.87 133.067 123.241 129.722 125.694Z" fill="#384317"/>
<path d="M150.125 112.17C152.13 111.657 154.498 111.451 156.708 111.131C159.419 110.737 161.959 110.276 164.604 109.83H164.934C166.504 110.69 150.956 112.137 150.125 112.17Z" fill="#4F3714"/>
<path d="M174.478 124.784C174.175 125.23 173.911 125.621 173.819 126.085C166.174 129.335 158.713 125.988 163.291 123.81C166.16 122.441 173.192 123.015 174.478 124.784Z" fill="#B0282E"/>
<path d="M167.4 124.002C171.945 123.669 172.361 126.262 168.39 126.343C164.92 126.413 164.069 124.247 167.4 124.002Z" fill="#D55644"/>
<path d="M149.142 105.149C136.853 106.872 156.886 110.771 160.164 110.351C163.482 109.924 158.66 107.477 157.202 106.971C155.012 106.213 152.038 105.986 149.795 105.28C149.854 105.29 150.197 105.261 151.114 105.41C153.146 105.738 163.495 106.89 165.428 106.971C170.507 107.18 175.672 106.716 180.732 106.841C176.998 107.573 173.357 108.378 169.544 109.051C169.419 109.072 168.245 109.08 166.912 109.311C165.336 109.387 164.729 109.812 164.61 109.833C161.965 110.278 159.425 110.74 156.714 111.133C156.767 110.789 154.518 110.367 153.753 110.224C142.638 108.149 143.027 111.123 149.148 111.003C150.164 111.72 144.92 111.188 149.148 112.173C138.983 112.069 138.805 105.981 145.857 103.982C146.253 104.289 148.284 104.975 149.148 105.152L149.142 105.149Z" fill="#B0282E"/>
<path d="M156.708 111.131C154.505 111.451 152.137 111.657 150.125 112.17C149.907 112.178 149.683 112.168 149.465 112.17C149.353 112.17 149.248 112.17 149.136 112.17C144.907 111.185 150.151 111.717 149.136 111C150.64 110.972 152.526 110.573 153.74 110.221C154.505 110.364 156.754 110.787 156.702 111.131H156.708Z" fill="#C53836"/>
<path d="M149.142 105.149C149.333 105.189 149.617 105.246 149.802 105.28C152.038 105.986 155.013 106.21 157.209 106.971C158.667 107.477 163.489 109.927 160.171 110.351C156.886 110.774 136.853 106.875 149.149 105.149H149.142Z" fill="#D55644"/>
<path d="M166.913 109.311L164.94 109.833H164.611C164.736 109.812 165.336 109.39 166.913 109.311Z" fill="#FBDFC0"/>
<path d="M153.746 110.221C152.533 110.573 150.639 110.972 149.142 111C143.021 111.12 142.638 108.144 153.746 110.221Z" fill="#E8A560"/>
<path d="M93.8513 115.032C94.3263 117.954 101.272 120.057 107.018 121.597C107.037 121.652 105.916 122.103 105.698 122.183C104.788 122.52 103.983 122.522 103.726 122.574C95.5004 122.806 82.3539 117.737 90.8896 115.032C92.0307 114.912 92.0703 114.519 93.8513 115.032Z" fill="#E1B27A"/>
<path d="M90.8901 115.032C82.3544 117.735 95.5009 122.806 103.727 122.574C94.274 124.487 87.2621 122.457 81.3518 119.585C82.0312 117.156 84.8611 115.663 90.8967 115.035L90.8901 115.032Z" fill="#AA7453"/>
<path d="M103.726 117.891C104.379 119.1 107.875 120.138 108.66 121.402C108.278 121.514 107.196 122.134 105.699 122.181C105.91 122.103 107.031 121.652 107.018 121.594C101.273 120.054 94.3332 117.951 93.8517 115.029C93.8319 114.912 94.1683 114.897 94.1815 114.769C101.035 114.941 98.9572 117.544 103.726 117.888V117.891Z" fill="#E6CD8D"/>
<path d="M103.726 117.891C98.957 117.547 101.035 114.943 94.1812 114.771C94.267 113.708 93.5942 113.39 96.3185 112.431C104.069 109.7 119.241 112.371 115.573 116.267C114.379 117.534 106.596 118.1 103.726 117.894V117.891Z" fill="#B0282E"/>
<path d="M111.952 113.732C114.933 115.952 105.052 117.763 102.572 117.503C102.031 117.445 99.5771 116.009 99.775 115.619C100.21 114.735 102.071 115.428 102.242 115.423C102.954 115.4 103.964 114.537 104.379 114.383C107.559 113.213 107.024 113.033 111.945 113.734L111.952 113.732Z" fill="#D55644"/>
<path d="M111.952 113.732C107.025 113.03 107.565 113.21 104.386 114.38C103.608 114.435 102.011 114.753 102.084 114.25C106.49 114.219 104.412 113.028 102.579 112.95C100.356 112.856 99.2013 113.599 101.094 114.25C97.5918 113.883 100.765 112.611 101.259 112.559C102.044 112.478 110.343 112.533 111.952 113.729V113.732Z" fill="#C53836"/>
<path d="M102.077 114.253C101.767 114.253 101.318 114.276 101.088 114.253C99.1944 113.601 100.342 112.858 102.572 112.952C104.412 113.03 106.483 114.221 102.077 114.253Z" fill="#DFBC6B"/>
<path d="M113.924 95.7879C118.363 97.8025 129.947 98.1491 131.035 95.5273L131.859 95.1364C133.449 94.9983 135.111 94.8445 136.629 94.6152C138.04 94.4041 139.458 94.133 140.91 93.9662C141.47 93.9011 143.093 93.7082 143.212 93.7056C143.509 93.7004 143.654 93.8985 144.201 93.8359C143.984 93.8542 142.005 94.0757 141.899 94.0965C141.068 94.2529 139.458 94.3988 138.937 94.6829C136.312 96.1033 143.568 99.1838 146.503 99.95C148.456 100.458 149.59 100.974 152.427 100.729C151.681 100.917 145.718 103.083 145.514 103.265C145.138 103.609 145.461 103.687 145.844 103.979C138.792 105.978 138.97 112.066 149.135 112.17C149.247 112.17 149.353 112.17 149.465 112.17C148.509 112.431 147.493 112.569 146.503 112.819C127.829 114.266 120.573 117.912 108.66 121.402C107.869 120.138 104.379 119.1 103.726 117.891C106.596 118.099 114.379 117.531 115.573 116.265C119.241 112.371 104.076 109.697 96.3184 112.428C93.5942 113.387 94.267 113.705 94.1812 114.769C94.168 114.896 93.8316 114.912 93.8514 115.029C92.0704 114.516 92.0308 114.91 90.8897 115.029C84.854 115.657 82.0242 117.153 81.3448 119.58C73.4028 115.717 75.916 112.598 86.2788 110.088C96.0348 109.595 105.659 108.681 114.907 107.357C121.002 106.484 126.714 105.366 132.513 104.237C133.113 103.909 131.134 103.679 130.375 103.458C128.957 103.041 127.559 102.78 126.094 102.418C120.065 100.917 113.746 99.6425 107.005 98.6469C109.636 98.8658 111.8 99.0379 114.082 99.6868C115.553 97.6461 104.194 96.6037 101.741 98.256C101.688 98.2716 101.879 98.4619 101.576 98.5166C100.349 98.7355 88.5282 98.0605 76.3975 101.636C76.3513 101.626 75.7049 101.641 75.4081 101.506C72.9542 100.375 74.6495 97.7947 78.3698 97.151C76.1403 93.2261 85.0189 92.0976 91.8593 90.586C97.2419 93.5127 104.749 95.4022 113.911 95.7879H113.924Z" fill="#E6CD8D"/>
<path d="M124.953 106.58C129.604 106.33 127.539 108.355 125.283 109.051C116.655 111.707 120.217 106.833 124.953 106.58Z" fill="#B0282E"/>
<path d="M107.018 98.6496C105.256 98.5036 103.475 98.4723 101.754 98.2586C104.207 96.6037 115.56 97.6488 114.095 99.6894C111.813 99.0405 109.649 98.8685 107.018 98.6496Z" fill="#C53836"/>
<path d="M88.4226 92.7987C99.4385 92.082 98.172 98.4176 87.4332 97.0884C81.6482 96.3717 82.9147 93.1557 88.4226 92.7987Z" fill="#B0282E"/>
<path d="M89.412 93.8386C92.7036 93.5076 93.6535 95.5639 90.7313 95.788C87.1231 96.0643 87.354 94.0445 89.412 93.8386Z" fill="#E6CD8D"/>
<path d="M176.781 75.7647C173.845 77.0105 170.422 79.2101 169.215 80.8363C166.504 84.472 168.502 88.7539 179.089 89.8068C181.299 90.0257 182.071 90.13 184.353 89.8068C185.31 89.6713 186.194 89.2673 186.985 89.0276C189.452 88.2718 190.983 87.2502 193.239 86.4266C193.206 87.2293 192.961 88.0789 192.909 88.8973C192.678 92.6684 192.124 96.4396 192.909 100.208C192.5 101.105 192.394 101.342 192.249 102.288L190.93 103.067C188.436 101.639 181.253 99.3064 177.11 98.9076C174.591 96.9373 166.266 95.6655 167.236 95.0062C167.566 94.279 168.225 93.5415 168.225 92.7961C168.219 87.503 144.815 82.5564 144.036 81.8736C142.269 80.3229 151.847 76.7759 158.845 76.544C162.183 76.4319 165.389 77.2633 176.781 75.7647Z" fill="#E6CD8D"/>
<path d="M182.539 91.7588C191.84 91.1594 192.52 95.6394 185.501 96.0486C177.276 96.5308 175.554 92.2071 182.539 91.7588Z" fill="#B0282E"/>
<path d="M183.529 92.9291C187.374 92.8196 186.372 94.9489 182.869 94.0993C181.57 93.7839 182.282 92.9656 183.529 92.9291Z" fill="#DA7E48"/>
<path d="M158.186 80.0571C167.797 79.5072 166.972 84.8837 157.526 83.6979C152.421 83.0568 152.922 80.3594 158.186 80.0571Z" fill="#B0282E"/>
<path d="M159.175 80.9666C162.592 81.0214 161.451 83.148 158.186 82.9161C155.732 82.7415 156.292 80.9197 159.175 80.9666Z" fill="#CC693E"/>
<path d="M318.945 79.5358L319.604 79.7313C319.532 80.8389 319.426 81.6911 320.924 82.658C321.267 82.8795 322.632 83.4998 323.226 83.5676C323.476 83.5962 323.899 83.5493 324.215 83.5676C338.813 89.0093 355.812 102.356 355.805 110.286C356.478 110.273 357.104 109.809 357.124 110.351C357.415 118.253 348.721 125.54 336.722 131.675C336.715 131.594 335.95 131.414 335.897 131.414C333.892 131.485 313.509 138.191 302.988 140.515C273.324 147.07 238.001 147.805 204.756 147.406C204.709 146.47 204.109 145.496 204.426 144.544C204.597 144.524 205.059 144.425 205.085 144.414C242.289 140.719 282.962 138.052 312.203 127.383C335.627 118.834 345.911 106.875 333.1 94.8784C325.666 87.9147 312.401 82.8769 296.735 78.7565C266.299 70.7504 233.634 67.404 197.19 67.4457C197.203 66.8307 196.174 64.3365 197.19 63.9352C196.312 65.4494 207.599 64.605 213.806 64.7144C245.191 65.2774 274.386 69.0485 301.339 75.3763C307.058 76.7185 317.111 79.7834 318.12 79.7964C318.252 79.7964 318.556 79.541 318.945 79.5358Z" fill="#E1B27A"/>
<path d="M333.094 94.8785L332.104 95.2694C325.963 89.5228 279.281 80.2396 264.149 77.5865C240.264 73.3983 224.142 71.1779 197.183 71.6053C197.242 70.2292 197.163 68.8271 197.183 67.4458C233.634 67.4041 266.293 70.7505 296.728 78.7567C312.395 82.877 325.653 87.9148 333.094 94.8785Z" fill="#AA7453"/>
<path d="M332.111 95.2694C334.341 97.3543 333.622 100.727 333.43 102.939C329.044 100.203 324.802 97.3308 319.611 94.8133C307.461 88.9285 290.198 85.9575 273.701 82.3974L273.206 82.658C272.137 82.3479 258.628 80.0388 255.765 79.5384C255.719 79.5306 255.904 79.3299 255.6 79.2778C252.718 78.7748 247.441 78.1676 244.248 77.7167C244.175 77.3336 243.879 75.9784 243.258 75.7673C242.434 75.4858 240.91 75.5953 242.269 75.8976C240.831 76.1217 240.31 76.2729 238.648 76.2885C237.15 76.3016 222.236 74.816 217.421 74.5971C216.26 74.545 204.703 74.2401 205.574 74.5971C206.458 74.5763 207.058 74.8056 207.711 74.988C205.092 74.7613 203.687 74.4407 200.798 74.4668C199.063 74.4824 198.403 74.5241 196.847 74.8577C196.53 73.7762 197.13 72.6737 197.177 71.6078C224.142 71.1804 240.257 73.3983 264.142 77.589C279.274 80.2421 325.957 89.5253 332.098 95.272L332.111 95.2694Z" fill="#9A1F28"/>
<path d="M318.945 79.5358C318.556 79.541 318.252 79.7964 318.12 79.7964C317.111 79.7834 307.058 76.7185 301.339 75.3763C274.387 69.0485 245.191 65.2774 213.806 64.7144C207.599 64.6024 196.312 65.4494 197.19 63.9352C240.904 62.5044 284.683 69.0589 318.951 79.5384L318.945 79.5358Z" fill="#E6CD8D"/>
<path d="M200.804 74.4669C199.874 81.2325 201.437 88.0242 198.832 94.7508C197.783 95.3085 196.642 96.0747 195.87 96.7002C194.478 95.6577 196.075 92.4469 196.2 91.1751C196.312 90.031 195.817 88.8478 195.87 87.7297C196.061 83.4816 196.411 79.2388 196.2 74.9881C196.226 74.9777 196.635 74.9073 196.86 74.8578C198.41 74.5242 199.069 74.4851 200.811 74.4669H200.804Z" fill="#CA9969"/>
<path d="M336.715 131.675C310.837 144.904 265.408 151.185 224.333 152.217C220.659 152.308 207.196 152.491 204.755 152.347C203.739 150.719 204.834 149.03 204.755 147.406C237.994 147.805 273.318 147.067 302.988 140.515C313.509 138.191 333.892 131.485 335.897 131.415C335.95 131.415 336.708 131.594 336.721 131.675H336.715Z" fill="#AA7453"/>
<path d="M333.094 94.8783C345.904 106.877 335.621 118.834 312.197 127.383C282.955 138.055 242.282 140.718 205.079 144.414C206.55 143.849 212.942 142.592 215.119 142.204C230.238 139.504 239.063 139.457 252.962 137.914C257.302 137.432 275.66 135.024 278.958 134.404C286.122 133.056 290.95 130.7 297.058 128.813C306.142 126.007 312.764 124.909 322.56 120.036C332.685 115.003 333.272 110.622 332.435 104.302C332.659 103.937 333.398 103.195 333.424 102.937C333.615 100.724 334.334 97.3516 332.105 95.2667L333.094 94.8757V94.8783Z" fill="#CC693E"/>
<path d="M255.765 79.5358C247.513 80.9849 253.015 84.3521 236.511 89.5462C233.793 90.401 229.756 91.3028 226.801 92.1472C229.683 90.4844 233.654 89.1579 236.675 87.5316C237.348 87.1693 241.418 84.8889 241.61 84.7352C248.199 85.5379 251.748 76.8202 243.912 81.7459C244.176 81.0292 244.38 78.4725 244.241 77.7141C247.434 78.165 252.711 78.7722 255.594 79.2752C255.891 79.3273 255.713 79.528 255.759 79.5358H255.765Z" fill="#B0282E"/>
<path d="M243.258 75.7647C242.81 75.7204 242.625 75.8403 242.269 75.895C240.91 75.5927 242.427 75.4833 243.258 75.7647Z" fill="#B0282E"/>
<path d="M251.154 131.024C251.115 131.016 250.897 130.781 250.659 130.763C249.169 130.682 251.002 132.207 249.175 132.129C247.764 129.986 239.017 125.605 241.279 124.263C241.405 124.297 242.236 124.242 242.764 124.263L243.588 124.589C249.716 130.177 270.877 132.035 283.08 128.49C275.383 132.241 261.88 132.887 251.161 131.026L251.154 131.024Z" fill="#E1B27A"/>
<path d="M237.335 122.572C238.628 123.367 239.228 123.729 241.286 124.263C239.023 125.605 247.777 129.986 249.182 132.129C251.009 132.209 249.169 130.685 250.666 130.763C250.897 130.781 251.121 131.016 251.161 131.024C250.138 131.125 251.537 131.446 249.841 132.65C249.367 132.986 246.603 134.104 245.89 134.146C245.923 133.645 247.843 133.359 247.863 133.301C247.922 133.137 245.072 132.493 241.939 130.961C239.136 129.59 232.797 125.96 233.384 124.266C233.595 123.664 235.884 122.765 237.005 122.316C237.117 122.392 237.216 122.504 237.335 122.577V122.572Z" fill="#E6CD8D"/>
<path d="M233.383 124.263C232.796 125.96 239.135 129.588 241.939 130.958C245.072 132.491 247.922 133.135 247.862 133.299C247.843 133.356 245.917 133.643 245.89 134.143C245.785 134.148 245.672 134.138 245.56 134.143C235.956 132.668 228.713 129.012 228.12 124.912C229.294 124.618 231.523 123.982 233.383 124.263Z" fill="#E1B27A"/>
<path d="M245.561 134.146C244.67 134.584 243.192 134.735 241.939 134.925C231.477 134.216 223.001 130.046 225.158 125.824C225.976 125.483 227.111 125.167 228.12 124.915C228.714 129.014 235.956 132.671 245.561 134.146Z" fill="#CA9969"/>
<path d="M241.939 134.925C236.075 135.827 229.874 135.574 225.158 133.755C219.215 131.461 219.663 128.123 225.158 125.824C223.001 130.046 231.477 134.216 241.939 134.925Z" fill="#AA7453"/>
<path d="M313.351 101.769C314.084 101.923 313.965 102.105 314.671 101.9C319.578 103.943 323.444 105.097 326.188 107.881C325.884 108.746 323.787 107.49 320.759 106.841C307.652 104.024 288.998 103.127 274.849 105.28H274.519C276.88 103.085 287.408 100.74 293.279 100.469C299.07 100.2 308.127 100.682 313.351 101.769Z" fill="#58752C"/>
<path d="M326.188 107.881C326.748 108.451 326.762 108.936 326.847 109.051C324.407 108.571 322.487 107.743 320.099 107.232C316.992 106.565 299.004 103.898 297.23 104.957C293.292 107.297 319.004 110.041 322.566 110.873C319.849 111.042 319.149 111.078 316.313 111.133C316.814 110.429 311.722 110.555 309.235 110.354C306.168 110.104 299.288 109.426 296.399 109.053C290.172 108.251 279.268 105.944 276.326 105.543C275.752 105.465 274.657 105.723 274.842 105.282C288.984 103.127 307.645 104.026 320.752 106.843C323.78 107.495 325.878 108.749 326.181 107.883L326.188 107.881Z" fill="#384317"/>
<path d="M326.847 109.051C326.907 109.126 328.371 109.882 328.167 110.547C326.372 110.844 324.374 110.761 322.573 110.873C319.011 110.041 293.298 107.297 297.236 104.957C299.017 103.898 316.999 106.565 320.106 107.232C322.487 107.743 324.407 108.574 326.854 109.051H326.847Z" fill="#58752C"/>
<path d="M316.313 111.131C315.878 111.138 316.01 111.261 315.983 111.261C298.74 111.498 287.626 109.371 273.859 105.605C274.136 105.504 274.36 105.426 274.519 105.28H274.849C274.664 105.72 275.752 105.462 276.333 105.54C279.275 105.942 290.178 108.248 296.405 109.051C299.295 109.424 306.168 110.101 309.242 110.351C311.722 110.552 316.821 110.427 316.32 111.131H316.313Z" fill="#4B6729"/>
<path d="M243.258 113.341C243.173 113.737 244.195 113.958 244.248 113.99C244.71 114.302 244.96 114.193 244.578 114.639C238.47 112.885 237.064 116.26 237.665 117.305C238.357 118.504 243.324 119.278 245.396 116.849C246.656 118.801 244.228 120.805 249.512 118.928C249.439 119.074 250.171 119.098 248.522 120.033C246.233 121.331 241.055 122.092 237.335 122.569C237.216 122.496 237.117 122.384 237.005 122.309C232.401 119.173 230.363 113.101 243.258 113.338V113.341Z" fill="#B0282E"/>
<path d="M244.571 114.641C245.692 114.964 249.07 116.645 249.505 117.177C250.224 118.058 249.881 118.178 249.505 118.934C244.221 120.81 246.656 118.806 245.389 116.854C243.318 119.283 238.344 118.509 237.658 117.31C237.058 116.265 238.463 112.89 244.571 114.644V114.641Z" fill="#D55644"/>
<path d="M202.124 120.104C201.002 120.057 199.538 120.169 198.502 120.104C198.417 117.453 198.469 114.823 198.832 112.173C198.872 111.907 200.224 111.446 199.822 110.224C200.244 110.166 201.068 110.453 201.141 110.549C202.111 111.876 202.091 118.196 202.13 120.106L202.124 120.104Z" fill="#AA7453"/>
<path d="M201.134 108.921C204.986 112.441 205.033 116.338 205.415 120.101H202.124C202.084 118.193 202.11 111.871 201.134 110.544C201.062 110.448 200.237 110.161 199.815 110.218C200.554 109.708 199.868 109.173 199.815 108.527C200.593 108.472 200.758 108.754 201.134 108.918V108.921Z" fill="#CA9969"/>
<path d="M198.172 120.104C198.376 121.996 199.194 124.005 199.161 125.889C199.161 125.91 198.706 126.213 198.502 126.215C197.552 125.055 191.18 119.291 191.259 118.803C191.305 118.511 192.13 118.008 192.743 117.894C195.712 117.333 195.105 119.825 198.172 120.104Z" fill="#B0282E"/>
<path d="M203.436 134.534C204.281 134.748 204.578 134.993 205.739 135.055C206.471 136.106 202.684 135.501 202.777 136.486C202.704 135.788 202.52 135.102 202.447 134.406C202.836 134.378 203.133 134.461 203.436 134.537V134.534Z" fill="#C53836"/>
<path d="M205.738 135.055C204.577 134.993 204.274 134.748 203.436 134.534C201.194 130.234 215.508 131.021 211.662 133.948C210.692 134.685 207.803 135.162 205.738 135.053V135.055Z" fill="#E1B27A"/>
<path d="M297.553 120.622C302.137 122.671 303.252 125.91 298.542 124.524C298.569 124.24 298.615 123.89 298.542 123.614C298.351 122.879 297.348 122.186 296.57 121.534C296.28 119.963 297.381 120.63 297.559 120.625L297.553 120.622Z" fill="#D55644"/>
<path d="M333.424 102.939C333.404 103.197 332.665 103.94 332.435 104.305C333.272 110.625 332.685 115.006 322.56 120.039C312.758 124.909 306.142 126.009 297.058 128.816C290.95 130.703 286.122 133.059 278.958 134.406C275.66 135.027 257.302 137.435 252.962 137.917C239.063 139.46 230.231 139.509 215.119 142.207C212.942 142.595 206.55 143.854 205.079 144.417C205.053 144.427 204.591 144.526 204.419 144.547C203.41 141.884 203.054 139.173 202.777 136.486C202.685 135.501 206.471 136.106 205.739 135.055C207.803 135.165 210.693 134.688 211.662 133.95C215.508 131.021 201.194 130.234 203.437 134.537C203.133 134.461 202.843 134.378 202.447 134.406C201.9 129.254 202.216 125.094 202.117 120.104H205.409C211.088 122.418 214.697 125.472 216.266 128.621C218.588 133.262 213.641 133.273 225.152 133.757C229.875 135.577 236.069 135.829 241.933 134.928C243.18 134.735 244.664 134.586 245.554 134.148C245.66 134.143 245.778 134.154 245.884 134.148C246.596 134.107 249.36 132.989 249.835 132.652C251.524 131.448 250.125 131.13 251.154 131.026C261.874 132.887 275.383 132.241 283.074 128.49C270.871 132.035 249.717 130.179 243.582 124.589L242.757 124.263C242.23 124.242 241.405 124.297 241.273 124.263C239.215 123.729 238.621 123.369 237.322 122.572C241.042 122.095 246.227 121.334 248.509 120.036C250.158 119.1 249.426 119.077 249.499 118.931C249.875 118.175 250.218 118.055 249.499 117.174C249.063 116.643 245.686 114.962 244.565 114.638C244.947 114.193 244.697 114.302 244.235 113.99C244.697 113.969 245.33 114.029 245.719 114.12C250.145 115.149 258.331 121.013 265.792 123.221C272.184 125.113 287.659 127.529 295.739 128.032C295.957 128 295.739 127.873 296.234 127.641C297.408 127.088 298.47 125.259 298.536 124.521C303.252 125.908 302.131 122.668 297.547 120.62C300.937 120.492 304.38 120.614 308.569 119.971C317.362 118.618 321.089 114.422 315.977 111.258C316.003 111.258 315.871 111.136 316.306 111.128C319.143 111.073 319.836 111.037 322.56 110.867C324.361 110.755 326.359 110.841 328.154 110.542C328.358 109.877 326.894 109.121 326.834 109.046C326.748 108.931 326.742 108.446 326.175 107.875C323.431 105.092 319.565 103.938 314.657 101.894C314.361 101.769 313.754 101.068 313.338 101.764C308.114 100.677 299.057 100.198 293.265 100.463C294.281 99.6842 299.11 100.166 301.986 99.9422C312.164 99.1552 318.365 93.419 304.948 90.4505C294.506 88.1388 285.739 89.6791 289.974 92.2071C292.843 93.9193 290.403 90.216 299.354 90.8414C310.653 91.6311 299.71 98.7121 291.128 93.4424C289.657 93.3929 288.167 93.69 286.682 93.5727C285.495 93.4789 277.791 90.0752 264.961 89.8016C270.739 88.0815 277.705 88.1962 275.818 84.1462C275.568 83.6041 274.294 82.9708 273.186 82.6502L273.681 82.3896C290.172 85.9496 307.434 88.9207 319.591 94.8054C324.789 97.323 329.031 100.195 333.411 102.932L333.424 102.939Z" fill="#B0282E"/>
<path d="M284.228 86.6871C290.27 86.1893 291.557 88.8164 286.86 89.1578C280.389 89.6295 280.033 87.0337 284.228 86.6871Z" fill="#D8AB5E"/>
<path d="M266.787 124.263C268.628 124.003 281.781 126.664 268.107 128.423C267.414 127.899 265.006 124.513 266.787 124.263Z" fill="#D55644"/>
<path d="M262.012 125.433C272.889 129.786 256.643 128.483 254.116 125.694C255.508 125.543 255.455 125.538 256.089 125.045C258.14 125.23 259.914 125.702 262.012 125.436V125.433Z" fill="#D55644"/>
<path d="M256.748 123.872C256.814 124.133 256.378 124.818 256.088 125.042C255.455 125.538 255.508 125.54 254.116 125.691C250.224 126.116 247.995 124.433 249.835 123.286C251.431 122.295 256.451 122.681 256.748 123.872Z" fill="#E1B27A"/>
<path d="M262.012 125.433C259.914 125.699 258.14 125.227 256.088 125.042C256.378 124.818 256.814 124.133 256.748 123.872C263.199 121.527 266.55 124.857 262.012 125.433Z" fill="#DA7E48"/>
<path d="M253.951 119.582C255.092 119.606 259.519 121.618 256.253 121.923C252.573 122.267 251.088 119.52 253.951 119.582Z" fill="#C53836"/>
<path d="M297.388 92.1471C302.447 91.7354 300.614 94.5865 296.399 93.7082C294.308 93.273 295.957 92.2644 297.388 92.1471Z" fill="#D8AB5E"/>
<path d="M206.893 128.553C210.343 127.985 211.128 130.312 208.535 130.502C205.508 130.726 205.541 128.774 206.893 128.553Z" fill="#CC693E"/>
<path d="M279.618 84.9983C281.841 84.868 283.457 86.0955 281.59 86.5594C278.965 87.211 276.128 85.2016 279.618 84.9983Z" fill="#D8AB5E"/>
<path d="M319.11 113.21C323.984 114.109 322.025 115.577 319.934 114.837C319.591 114.714 318.206 113.229 319.11 113.21Z" fill="#D55644"/>
<path d="M319.769 101.12C320.666 100.87 323.714 101.324 322.896 102.225C321.92 103.302 318.476 101.482 319.769 101.12Z" fill="#B0282E"/>
<path d="M314.67 101.9C313.971 102.108 314.09 101.923 313.351 101.769C313.76 101.071 314.367 101.774 314.67 101.9Z" fill="#FFF8DD"/>
<path d="M200.475 105.931C202.612 107.865 205.593 110.359 210.019 111.652L207.058 111.782C206.814 111.626 201.926 109.267 201.134 108.92C200.758 108.756 200.6 108.477 199.815 108.53C199.756 107.797 199.795 107.331 199.485 106.58C199.347 106.247 199.215 106.161 199.155 106.059C199.386 106.043 200.422 105.949 200.475 105.929V105.931Z" fill="#AA7453"/>
<path d="M243.258 75.7647C243.878 75.9758 244.175 77.331 244.248 77.7141C244.386 78.4725 244.182 81.0291 243.918 81.7458C243.667 82.4235 242.335 84.1696 241.616 84.7351C241.425 84.8863 237.355 87.1693 236.682 87.5316C233.667 89.1578 229.696 90.4844 226.807 92.1471C224.413 92.8299 221.418 94.1278 221.049 94.0965C220.719 94.0705 220.976 93.7499 220.884 93.7056C220.798 87.9798 224.063 82.2045 234.703 78.0373C234.716 77.662 234.274 78.0138 234.043 77.9721C234.01 77.9669 233.753 77.7662 233.714 77.7115C235.89 77.1173 238.344 76.5856 238.648 76.2807C240.303 76.265 240.831 76.1165 242.269 75.8898C242.625 75.835 242.81 75.7151 243.258 75.7594V75.7647Z" fill="#58752C"/>
<path d="M220.877 93.7082C220.013 93.2833 220.211 93.4189 219.887 93.3172C219.617 92.7334 219.887 92.5771 219.887 92.538C220.039 86.8148 220.283 81.3835 234.036 77.9746C234.267 78.0163 234.703 77.6645 234.696 78.0398C224.05 82.2071 220.791 87.9824 220.877 93.7082Z" fill="#384317"/>
<path d="M233.714 77.7167C233.753 77.7714 234.01 77.9695 234.043 77.9773C220.29 81.3862 220.046 86.8175 219.894 92.5406C218.938 91.764 218.991 90.904 218.905 90.07C218.76 88.6236 218.568 86.9452 219.235 85.5196C219.327 85.3215 220.402 84.67 220.224 84.0888C222.262 82.9108 223.549 81.5113 225.818 80.3828C228.041 79.2778 230.851 78.5011 233.714 77.7167Z" fill="#58752C"/>
<path d="M241.609 84.7377C242.335 84.1722 243.667 82.4234 243.912 81.7484C251.748 76.8253 248.199 85.5404 241.609 84.7377Z" fill="#D55644"/>
<path d="M213.641 85.7776C215.639 85.96 215.989 86.4057 219.234 85.517C218.568 86.9425 218.76 88.6235 218.905 90.0674C214.789 90.3671 210.626 86.893 212.486 85.517C213.067 86.1529 213.548 85.7698 213.641 85.7776Z" fill="#D55644"/>
<path d="M220.224 84.0862C220.409 84.6673 219.327 85.3189 219.235 85.517C215.989 86.4031 215.64 85.96 213.641 85.7776C209.736 84.0992 217.051 82.1654 220.224 84.0862Z" fill="#E8A560"/>
<path d="M238.648 76.286C238.344 76.5909 235.89 77.12 233.714 77.7168C230.851 78.5012 228.041 79.2753 225.818 80.3829C223.549 81.5114 222.262 82.9109 220.224 84.0889C217.051 82.1655 209.736 84.1019 213.641 85.7803C213.555 85.7725 213.074 86.1556 212.487 85.5197C210.62 86.8957 214.789 90.3698 218.905 90.0701C218.991 90.9041 218.931 91.7615 219.894 92.5407C219.894 92.5798 219.624 92.7362 219.894 93.32C213.694 91.3367 203.951 88.9234 209.367 83.6328C213.126 79.9607 221.154 81.2455 215.95 77.9122C214.057 76.6978 210.607 75.7882 207.724 74.9855C207.071 74.8031 206.464 74.5737 205.587 74.5946C204.716 74.2375 216.273 74.5424 217.434 74.5946C222.243 74.8135 237.163 76.299 238.661 76.286H238.648Z" fill="#B0282E"/>
<path d="M224.333 75.895C226.88 75.8247 227.427 77.219 225.653 77.4561C222.348 77.8966 221.22 75.9836 224.333 75.895Z" fill="#E6CD8D"/>
<path d="M268.925 112.822C266.906 113.794 268.259 115.454 269.584 116.528C273.245 119.496 277.216 118.235 282.916 119.194C285.501 119.629 294.96 122.817 298.549 123.614C298.621 123.89 298.575 124.24 298.549 124.524C298.476 125.261 297.421 127.091 296.247 127.643C277.137 124.873 262.638 122.806 253.14 115.097C250.528 113.768 247.065 114.076 245.574 113.471C247.434 113.552 249.32 113.755 251.167 113.862C253.153 113.977 255.185 114.331 257.256 114.383C258.173 114.347 259.274 113.88 259.393 113.862C262.803 113.364 264.828 112.806 268.938 112.822H268.925Z" fill="#384317"/>
<path d="M245.56 113.471C247.058 114.076 250.521 113.765 253.126 115.097C262.632 122.806 277.124 124.876 296.233 127.643C295.745 127.873 295.956 128.003 295.739 128.034C287.658 127.531 272.19 125.115 265.791 123.223C258.331 121.016 250.138 115.152 245.719 114.122C245.336 114.034 244.703 113.971 244.235 113.992C244.188 113.958 243.166 113.739 243.245 113.343C243.364 113.343 244.597 113.432 245.547 113.474L245.56 113.471Z" fill="#4B6729"/>
<path d="M296.57 121.532C297.348 122.183 298.358 122.877 298.542 123.612C294.96 122.814 285.501 119.627 282.909 119.191C277.216 118.232 273.245 119.494 269.578 116.525C268.252 115.452 266.9 113.791 268.918 112.819C280.376 112.861 291.959 117.688 296.563 121.532H296.57Z" fill="#58752C"/>
<path d="M219.894 113.21C219.96 114.521 221.715 115.655 223.186 116.786C208.034 117.297 213.205 116.351 208.047 112.561L211.998 112.17C213.252 112.428 218.733 113.161 219.894 113.21Z" fill="#B0282E"/>
<path d="M210.019 111.652C210.58 111.816 211.405 112.051 211.992 112.173L208.04 112.564C207.73 112.335 207.11 111.821 207.051 111.785L210.013 111.654L210.019 111.652Z" fill="#D68E76"/>
<path d="M264.974 89.8068C277.804 90.0804 285.508 93.4841 286.695 93.5779C288.76 95.1208 291.814 96.463 294.921 97.6748C276.491 101.532 259.413 103.836 244.241 96.5698L240.95 94.0991C240.91 94.021 241.385 93.8385 241.445 93.8385C246.062 93.862 260.264 94.3076 264.809 94.6178C274.242 95.2615 283.252 96.9008 292.619 97.6722C293.404 97.1327 283.457 96.2493 282.909 96.1763C281.003 95.9209 278.193 95.3423 276.326 95.1364C272.54 94.7194 267.546 94.5422 263.16 93.9662C259.914 93.8203 256.405 93.802 252.955 93.7056C252.896 93.7056 252.025 93.4476 251.966 93.445C249.321 93.3877 244.855 93.8359 242.586 93.3147C242.546 93.1557 242.902 93.1922 242.916 93.1844C243.529 93.4737 244.736 92.499 246.537 91.7536C248.628 91.1854 250.416 90.9014 252.79 90.5834C257.658 89.9345 259.578 89.6895 264.967 89.8042L264.974 89.8068Z" fill="#58752C"/>
<path d="M242.599 93.3173C244.868 93.8386 249.334 93.3903 251.979 93.4476C252.038 93.4476 252.909 93.7056 252.969 93.7082C256.418 93.8047 259.928 93.8203 263.173 93.9689C267.553 94.5448 272.553 94.7221 276.339 95.139C278.206 95.3449 281.01 95.9235 282.922 96.1789C283.463 96.2519 293.411 97.1354 292.632 97.6749C283.272 96.9008 274.261 95.2615 264.822 94.6204C260.277 94.3103 246.075 93.862 241.458 93.8412C241.399 93.8412 240.924 94.0236 240.963 94.1018C240.007 93.8542 241.801 93.3981 241.953 93.3225C242.216 93.333 242.54 93.3069 242.612 93.3225L242.599 93.3173Z" fill="#4B6729"/>
<path d="M246.55 91.7589C244.749 92.5042 243.542 93.4789 242.929 93.1896C243.483 92.9473 244.004 92.645 244.571 92.4104C245.475 92.0403 245.501 92.0429 246.544 91.7615L246.55 91.7589Z" fill="#4B6729"/>
<path d="M225.158 101.769C224.03 101.733 222.685 101.759 221.537 101.769C213.001 101.185 216.787 99.6634 218.74 99.5591C221.134 99.4288 222.955 100.482 223.186 100.015C219.657 97.3673 229.532 96.6246 225.158 101.772V101.769Z" fill="#D55644"/>
<path d="M252.803 90.5886C250.429 90.9065 248.641 91.1906 246.55 91.7587C245.508 92.0428 245.475 92.0376 244.578 92.4077C243.628 92.4416 242.546 93.0045 241.946 93.3172C241.794 93.3954 240 93.8489 240.956 94.0965L244.248 96.5672C242.645 98.8554 241.154 101.222 237.665 103.197C235.217 102.715 227.83 101.855 225.158 101.766C229.531 96.6219 219.657 97.362 223.186 100.01C222.955 100.476 221.134 99.4261 218.74 99.5538C216.787 99.6607 213.001 101.18 221.537 101.764C216.055 101.816 213.45 102.238 208.37 102.804C211.741 101.462 213.891 99.9813 218.41 98.6443C222.797 97.3438 235.211 95.0947 237.17 94.3545C240.699 93.0201 242.097 89.2464 252.803 90.5834V90.5886Z" fill="#B0282E"/>
<path d="M244.571 92.4077C243.997 92.6423 243.483 92.9446 242.929 93.187C242.915 93.1948 242.566 93.1583 242.599 93.3173C242.526 93.3016 242.203 93.3277 241.939 93.3173C242.539 93.0045 243.621 92.4416 244.571 92.4077Z" fill="#A06340"/>
<path d="M235.686 98.1284C238.014 98.8763 237.658 99.5279 235.191 99.4288C235.053 99.4236 232.975 98.9076 232.559 99.0379C231.873 99.2568 233.357 100.109 231.075 100.469C229.307 100.599 229.215 98.9858 230.086 98.5844C232.177 97.6202 234.901 98.746 235.679 98.1284H235.686Z" fill="#DA7E48"/>
<path d="M235.686 98.1283C234.901 98.7434 232.183 97.6175 230.092 98.5844C229.222 98.9858 229.314 100.599 231.082 100.469C224.842 101.451 228.14 95.7046 235.686 98.1283Z" fill="#CC693E"/>
<path d="M207.717 74.9855C210.606 75.7856 214.05 76.6977 215.943 77.9122C221.147 81.2455 213.12 79.9607 209.36 83.6328C203.944 88.9207 213.694 91.334 219.888 93.32C220.204 93.4216 220.013 93.2835 220.877 93.7109C220.969 93.7552 220.712 94.0757 221.042 94.1018C221.411 94.1305 224.406 92.8352 226.8 92.1524C229.756 91.308 233.793 90.4088 236.51 89.5514C253.014 84.3573 247.513 80.9901 255.765 79.5411C258.634 80.0414 272.137 82.3505 273.206 82.6607C274.314 82.9812 275.587 83.6145 275.838 84.1566C277.718 88.2066 270.758 88.0919 264.98 89.812C259.591 89.6974 257.678 89.9423 252.803 90.5913C242.097 89.2543 240.699 93.0281 237.17 94.3624C235.211 95.1026 222.797 97.3517 218.41 98.6522C213.898 99.9918 211.741 101.472 208.37 102.812C207.137 103.302 205.6 103.687 204.089 104.242C199.894 105.788 200.666 105.85 200.468 105.934C200.422 105.952 199.386 106.049 199.149 106.064C198.905 105.637 198.766 105.202 198.489 104.764C205.277 102.402 212.486 100.312 210.336 96.2467C209.92 95.4622 206.84 93.2027 205.072 92.8013C204.709 92.7179 204.61 92.4782 203.588 92.671C203.271 92.731 199.248 94.5214 198.819 94.7507C201.431 88.0242 199.861 81.2351 200.791 74.4668C203.674 74.4382 205.085 74.7587 207.704 74.9881L207.717 74.9855Z" fill="#E6CD8D"/>
<path d="M267.118 83.0464C275.073 82.4652 275.766 86.768 268.107 86.4266C263.153 86.2077 262.632 83.3748 267.118 83.0464Z" fill="#B0282E"/>
<path d="M268.1 83.4373C270.402 83.2054 271.669 84.7117 269.419 84.8681C267.5 85.001 265.125 83.7396 268.1 83.4373Z" fill="#D55644"/>
<path d="M293.278 100.469C287.408 100.74 276.887 103.085 274.518 105.28C274.36 105.423 274.143 105.504 273.859 105.606C287.619 109.371 298.74 111.498 315.983 111.261C321.102 114.422 317.375 118.621 308.575 119.973C304.387 120.617 300.937 120.495 297.553 120.622C297.381 120.63 296.273 119.96 296.563 121.532C291.959 117.688 280.376 112.864 268.918 112.819C264.809 112.804 262.784 113.362 259.373 113.859H251.148C249.301 113.752 247.414 113.549 245.554 113.468C244.604 113.427 243.364 113.341 243.252 113.338C230.356 113.101 232.394 119.173 236.999 122.309C235.884 122.757 233.588 123.656 233.377 124.258C231.517 123.977 229.287 124.615 228.113 124.907C227.104 125.16 225.969 125.475 225.152 125.816C219.657 128.115 219.208 131.456 225.152 133.747C213.641 133.265 218.588 133.255 216.266 128.61C214.696 125.462 211.088 122.41 205.409 120.093C205.026 116.33 204.987 112.431 201.128 108.913C201.919 109.259 206.807 111.615 207.051 111.774C207.111 111.811 207.724 112.324 208.041 112.554C213.199 116.343 208.021 117.289 223.179 116.778C221.715 115.647 219.954 114.513 219.888 113.203C224.373 113.395 230.554 112.838 235.026 112.423C241.985 111.777 245.35 111.167 251.478 109.822C252.553 109.588 255.125 109.51 255.099 109.108L247.203 106.181C244.736 105.256 240.646 103.779 237.658 103.192C241.148 101.217 242.638 98.8477 244.241 96.5621C259.413 103.828 276.491 101.524 294.921 97.6671C291.814 96.4552 288.76 95.1156 286.695 93.5702C288.173 93.6874 289.664 93.3903 291.141 93.4399C299.723 98.7096 310.666 91.6312 299.367 90.8389C290.416 90.2134 292.856 93.9168 289.987 92.2045C285.752 89.6791 294.519 88.1389 304.961 90.448C318.378 93.4164 312.177 99.1526 301.999 99.9397C299.123 100.161 294.294 99.6791 293.278 100.461V100.469Z" fill="#E6CD8D"/>
<path d="M269.09 104.631C270.791 105.329 283.747 108.102 284.228 108.402C285.178 108.991 280.792 110.179 276.332 109.181C274.09 108.681 270.323 105.718 269.09 104.631Z" fill="#B0282E"/>
<path d="M259.38 113.862C259.261 113.88 258.16 114.347 257.243 114.383C255.172 114.334 253.14 113.976 251.155 113.862H259.38Z" fill="#BA4C4E"/>
<path d="M294.756 111.391C304.604 110.995 307.296 116.664 298.377 117.242C286.385 118.019 285.547 111.761 294.756 111.391Z" fill="#B0282E"/>
<path d="M295.416 112.952C300.97 112.491 301.082 115.41 296.735 115.553C292.434 115.694 291.682 113.265 295.416 112.952Z" fill="#E1B27A"/>
<rect opacity="0.8" width="393" height="143" fill="#201B14"/>
</g>
</g>
<defs>
<clipPath id="clip0_13_2148">
<rect width="393" height="143" fill="white"/>
</clipPath>
<clipPath id="clip1_13_2148">
<rect width="472" height="273" fill="white" transform="translate(-41 -50)"/>
</clipPath>
</defs>
</svg>
